<?xml version="1.0" standalone="no"?>
<!DOCTYPE svg PUBLIC "-//W3C//DTD SVG 20010904//EN"
 "http://www.w3.org/TR/2001/REC-SVG-20010904/DTD/svg10.dtd">
<svg version="1.0" xmlns="http://www.w3.org/2000/svg"
 width="997.000000pt" height="921.000000pt" viewBox="0 0 997.000000 921.000000"
 preserveAspectRatio="xMidYMid meet">
<metadata>
Created by potrace 1.16, written by Peter Selinger 2001-2019
</metadata>
<g transform="translate(0.000000,921.000000) scale(0.100000,-0.100000)"
fill="#000000" stroke="none">
<path d="M5465 9120 c-3 -5 0 -13 8 -15 24 -10 232 -1 232 10 0 14 -231 19
-240 5z"/>
<path d="M6515 8551 c-6 -5 -23 -11 -40 -13 -16 -2 -29 -7 -27 -13 1 -6 46
-10 110 -10 l107 0 0 14 c0 12 -13 14 -56 12 -33 -1 -60 2 -64 8 -8 13 -18 14
-30 2z"/>
<path d="M5975 7960 c-3 -5 0 -13 7 -15 25 -10 263 0 263 10 0 14 -261 19
-270 5z"/>
<path d="M5975 7900 c-3 -5 0 -12 7 -15 25 -10 293 0 293 10 0 14 -291 19
-300 5z"/>
<path d="M5655 6751 c-7 -13 6 -20 43 -23 17 -1 30 -7 29 -13 -1 -5 13 -10 31
-10 17 0 32 5 33 10 0 6 9 13 20 17 11 4 17 12 14 18 -8 13 -162 13 -170 1z"/>
<path d="M9675 5858 c-10 -25 -1 -223 10 -223 13 0 19 215 6 228 -7 7 -12 5
-16 -5z"/>
<path d="M9236 5761 c-18 -19 -22 -96 -6 -106 6 -3 10 -24 10 -45 0 -42 17
-63 26 -33 3 10 10 26 15 35 5 11 5 19 -1 23 -6 3 -10 35 -10 70 0 35 -4 66
-9 69 -4 3 -16 -3 -25 -13z"/>
<path d="M7977 5043 c-10 -16 -12 -198 -2 -203 5 -3 11 4 13 15 2 11 6 27 9
35 8 22 3 144 -7 153 -4 5 -10 5 -13 0z"/>
<path d="M9416 5003 c-3 -3 -6 -29 -7 -57 0 -28 -4 -60 -8 -71 -5 -11 -5 -25
0 -30 4 -6 9 -38 11 -70 2 -33 8 -60 13 -60 6 0 11 56 12 142 2 129 -3 164
-21 146z"/>
<path d="M9077 4853 c-10 -17 -12 -248 -2 -253 5 -3 13 9 16 25 10 48 10 223
0 230 -5 3 -12 2 -14 -2z"/>
<path d="M9485 4839 c-10 -26 -1 -264 10 -264 14 0 19 255 6 268 -7 7 -12 5
-16 -4z"/>
<path d="M8785 4728 c-10 -25 -1 -213 10 -213 13 0 19 205 6 218 -7 7 -12 5
-16 -5z"/>
<path d="M8865 4529 c-10 -26 -1 -234 10 -234 13 0 19 225 6 238 -7 7 -12 5
-16 -4z"/>
<path d="M8385 4329 c-10 -26 -1 -244 10 -244 14 0 19 235 6 248 -7 7 -12 5
-16 -4z"/>
<path d="M8125 4318 c-10 -25 -1 -223 10 -223 13 0 19 215 6 228 -7 7 -12 5
-16 -5z"/>
<path d="M8036 4299 c-11 -28 -11 -494 -1 -499 14 -7 30 489 16 503 -7 7 -12
6 -15 -4z"/>
<path d="M8735 4289 c-10 -26 -1 -384 10 -384 14 0 19 375 6 388 -7 7 -12 5
-16 -4z"/>
<path d="M8795 4289 c-10 -26 -1 -314 10 -314 14 0 19 305 6 318 -7 7 -12 5
-16 -4z"/>
<path d="M7495 4279 c-10 -26 -1 -284 10 -284 14 0 19 275 6 288 -7 7 -12 5
-16 -4z"/>
<path d="M7415 4219 c-10 -26 -1 -274 10 -274 14 0 19 265 6 278 -7 7 -12 5
-16 -4z"/>
<path d="M8595 4168 c-10 -25 -1 -223 10 -223 13 0 19 215 6 228 -7 7 -12 5
-16 -5z"/>
<path d="M7757 4144 c-11 -11 -8 -202 2 -209 18 -11 25 20 22 109 -2 86 -9
115 -24 100z"/>
<path d="M6346 4122 c-11 -18 -16 -171 -6 -177 17 -10 32 47 30 110 -1 59 -12
87 -24 67z"/>
<path d="M7355 4079 c-10 -26 -1 -294 10 -294 14 0 19 285 6 298 -7 7 -12 5
-16 -4z"/>
<path d="M7155 4009 c-10 -26 -1 -364 10 -364 14 0 19 355 6 368 -7 7 -12 5
-16 -4z"/>
<path d="M7235 4009 c-10 -26 -1 -234 10 -234 13 0 19 225 6 238 -7 7 -12 5
-16 -4z"/>
<path d="M8996 3939 c-2 -8 -7 -42 -11 -76 -5 -49 -2 -68 11 -88 9 -13 20 -22
25 -19 13 7 11 48 -2 61 -6 6 -7 13 -1 16 5 4 7 28 5 54 -5 50 -19 77 -27 52z"/>
<path d="M7015 3899 c-10 -26 -1 -264 10 -264 14 0 19 255 6 268 -7 7 -12 5
-16 -4z"/>
<path d="M9055 3729 c-10 -26 -1 -344 10 -344 14 0 19 335 6 348 -7 7 -12 5
-16 -4z"/>
<path d="M9115 3669 c-10 -26 -1 -294 10 -294 14 0 19 285 6 298 -7 7 -12 5
-16 -4z"/>
<path d="M8987 3572 l-17 -19 2 -194 c4 -253 22 -263 25 -14 2 114 7 188 15
203 16 31 -2 49 -25 24z"/>
<path d="M8776 3543 c-7 -8 -6 -283 3 -443 6 -115 21 -152 31 -75 3 22 10 39
15 38 6 -2 10 32 10 87 0 89 -14 123 -26 64 -4 -16 -7 51 -8 148 -1 161 -6
199 -25 181z"/>
<path d="M6695 3468 c-10 -25 -1 -223 10 -223 13 0 19 215 6 228 -7 7 -12 5
-16 -5z"/>
<path d="M6905 3428 c-10 -25 -1 -223 10 -223 13 0 19 215 6 228 -7 7 -12 5
-16 -5z"/>
<path d="M8716 3372 c-9 -15 1 -487 10 -487 5 0 11 11 12 25 2 14 7 28 10 32
9 9 -10 424 -19 433 -4 3 -10 2 -13 -3z"/>
<path d="M8476 3352 c-4 -6 -10 -242 -7 -276 1 -5 8 -3 16 4 12 10 15 39 15
141 0 113 -8 157 -24 131z"/>
<path d="M6305 3319 c-5 -6 -8 -25 -7 -40 0 -17 -4 -28 -11 -26 -15 3 -22
-149 -8 -166 12 -16 13 -125 0 -133 -6 -4 -6 -11 2 -20 6 -8 8 -14 5 -14 -4 0
-2 -9 4 -20 6 -11 15 -18 21 -15 13 9 12 208 -3 223 -8 8 -8 15 2 27 10 12 10
19 2 27 -16 16 -15 29 1 26 8 -2 13 16 15 61 3 63 -8 95 -23 70z"/>
<path d="M7606 3251 c-12 -13 -14 -21 -6 -26 8 -5 11 -41 8 -114 -2 -64 1
-108 7 -110 6 -3 11 4 13 15 2 10 6 26 9 34 8 22 3 204 -6 213 -4 4 -15 -1
-25 -12z"/>
<path d="M3527 3234 c-4 -4 -7 -16 -7 -26 0 -10 -6 -17 -12 -15 -7 1 -13 -6
-13 -15 0 -10 5 -17 10 -15 6 1 12 -20 15 -48 8 -77 25 -59 28 29 3 74 -5 106
-21 90z"/>
<path d="M8646 3231 c-11 -17 -12 -226 -1 -231 5 -3 11 4 13 15 2 11 6 27 9
35 3 8 4 51 3 95 -1 76 -10 109 -24 86z"/>
<path d="M7105 3178 c-10 -25 -1 -223 10 -223 13 0 19 215 6 228 -7 7 -12 5
-16 -5z"/>
<path d="M3916 3162 c-10 -16 -9 -223 2 -234 19 -19 24 13 23 121 -2 98 -10
137 -25 113z"/>
<path d="M7155 3139 c-10 -26 -1 -234 10 -234 13 0 19 225 6 238 -7 7 -12 5
-16 -4z"/>
<path d="M8557 2983 c-3 -5 -7 -61 -8 -124 -1 -91 1 -114 12 -114 11 0 15 25
17 114 2 103 -6 149 -21 124z"/>
<path d="M5843 2197 c-3 -5 -1 -13 4 -18 13 -13 298 -7 298 6 0 12 -295 24
-302 12z"/>
<path d="M6257 2044 c-4 -4 -7 -51 -7 -105 l0 -98 -137 -3 c-193 -4 -178 -23
18 -23 l152 0 -2 110 c-2 104 -8 134 -24 119z"/>
<path d="M3724 1326 c-5 -12 -16 -16 -38 -14 -22 2 -31 -1 -31 -12 0 -10 12
-16 32 -18 l32 -3 3 -42 c5 -65 23 -50 26 22 3 64 -11 102 -24 67z"/>
</g>
</svg>
