<?xml version="1.0" encoding="UTF-8"?>
<svg xmlns="http://www.w3.org/2000/svg" width="1314" height="1198" viewBox="0 0 1314 1198">
<g fill="none" stroke-width="1.8" stroke-linecap="round" stroke-linejoin="round">
<path d="M 661 804 L 667 800 L 672 794 L 671 786 L 667 780 L 661 776 L 652 777 L 646 782 L 643 788 L 641 796 L 646 801 L 653 804 L 661 805 L 661 804 Z" stroke="#D9AB81"/>
<path d="M 656 816 L 664 815 L 671 813 L 675 808 L 678 802 L 681 794 L 682 786 L 678 780 L 674 774 L 669 770 L 660 768 L 652 769 L 645 771 L 641 776 L 636 782 L 632 787 L 630 795 L 632 802 L 635 808 L 640 812 L 647 816 L 656 817 L 656 816 Z" stroke="#D8AB81"/>
<path d="M 651 833 L 659 831 L 667 829 L 674 825 L 680 822 L 684 817 L 688 810 L 689 801 L 691 793 L 693 786 L 692 777 L 688 772 L 684 766 L 680 761 L 674 758 L 665 758 L 657 755 L 649 758 L 641 762 L 635 766 L 629 771 L 623 775 L 621 782 L 620 791 L 619 799 L 620 807 L 625 812 L 629 819 L 632 825 L 638 828 L 643 832 L 651 833 Z" stroke="#D7AB82"/>
<path d="M 705 870 L 712 866 L 717 861 L 722 857 L 728 852 L 734 848 L 738 842 L 742 836 L 744 829 L 747 821 L 749 814 L 752 807 L 753 798 L 752 790 L 752 781 L 752 772 L 751 764 L 748 757 L 744 751 L 738 745 L 733 740 L 730 733 L 726 728 L 721 722 L 716 718 L 712 713 L 705 708 L 699 704 L 692 701 L 684 700 L 676 699 L 668 698 L 659 700 L 652 702 L 644 701 L 636 700 L 628 703 L 622 706 L 616 710 L 611 714 L 606 719 L 601 724 L 596 728 L 591 734 L 587 739 L 582 743 L 578 748 L 573 753 L 569 758 L 567 765 L 563 770 L 560 777 L 561 786 L 564 793 L 566 800 L 568 808 L 571 815 L 572 823 L 574 831 L 575 839 L 577 846 L 580 852 L 586 857 L 591 862 L 598 865 L 606 868 L 612 871" stroke="#D2AB86"/>
<path d="M 762 869 L 764 862 L 768 856 L 771 849 L 772 840 L 775 833 L 778 827 L 781 821 L 783 814 L 786 808 L 788 801 L 788 794 L 788 785 L 788 778 L 786 770 L 785 762 L 782 756 L 780 748 L 778 740 L 773 734 L 766 729 L 761 724 L 757 717 L 754 711 L 751 705 L 746 699 L 740 694 L 735 690 L 729 684 L 724 679 L 718 675 L 711 672 L 704 667 L 698 664 L 690 663 L 682 661 L 673 662 L 665 661 L 656 661 L 648 661 L 641 663 L 633 664 L 625 663 L 618 667 L 611 672 L 604 674 L 598 677 L 592 680 L 586 685 L 582 690 L 578 696 L 574 701 L 568 706 L 561 710 L 555 714 L 550 720 L 547 726 L 544 732 L 539 736 L 535 743 L 531 749 L 529 757 L 529 766 L 530 774 L 532 781 L 534 788 L 532 795 L 531 804 L 532 812 L 533 821 L 536 827 L 540 834 L 546 839 L 549 845 L 551 852 L 552 860 L 556 865 L 558 869" stroke="#CEAB88"/>
<path d="M 801 868 L 804 861 L 808 854 L 812 849 L 812 840 L 813 832 L 814 824 L 816 817 L 818 810 L 820 802 L 820 793 L 821 785 L 819 778 L 820 770 L 817 764 L 815 757 L 813 750 L 812 741 L 810 734 L 807 727 L 803 722 L 797 718 L 793 712 L 789 707 L 785 701 L 782 694 L 777 688 L 772 682 L 768 677 L 763 671 L 758 666 L 753 661 L 749 656 L 743 651 L 738 646 L 732 641 L 726 637 L 719 634 L 713 631 L 704 631 L 695 632 L 686 633 L 678 631 L 671 628 L 664 630 L 655 629 L 646 629 L 639 631 L 633 634 L 626 637 L 620 641 L 613 644 L 605 646 L 598 644 L 590 643 L 582 645 L 576 650 L 570 655 L 565 660 L 558 664 L 553 668 L 549 673 L 543 678 L 536 682 L 530 687 L 526 692 L 525 700 L 521 706 L 517 711 L 511 716 L 507 722 L 505 730 L 503 737 L 501 746 L 498 752 L 496 759 L 495 765 L 498 772 L 498 779 L 497 787 L 496 795 L 494 803 L 494 812 L 493 820 L 493 829 L 495 836 L 498 842 L 502 847 L 506 853 L 510 858 L 514 864 L 515 868" stroke="#CBAB8A"/>
<path d="M 831 866 L 835 860 L 839 853 L 842 847 L 846 842 L 850 837 L 851 828 L 850 819 L 852 812 L 854 804 L 856 796 L 855 788 L 854 780 L 851 773 L 850 765 L 848 757 L 848 750 L 848 743 L 846 736 L 844 729 L 841 722 L 837 715 L 834 709 L 832 701 L 828 696 L 826 689 L 821 685 L 816 681 L 812 676 L 807 672 L 802 666 L 798 660 L 795 654 L 789 648 L 785 642 L 780 637 L 775 632 L 768 629 L 762 625 L 756 621 L 750 618 L 742 616 L 736 613 L 730 608 L 723 605 L 715 605 L 707 604 L 699 602 L 692 600 L 683 601 L 675 599 L 669 596 L 660 596 L 653 597 L 646 599 L 640 598 L 632 599 L 625 601 L 617 602 L 609 603 L 601 605 L 593 608 L 584 608 L 577 610 L 571 614 L 566 618 L 561 622 L 556 628 L 551 632 L 546 636 L 541 640 L 533 643 L 526 647 L 521 653 L 517 659 L 511 664 L 506 669 L 500 674 L 494 677 L 491 683 L 488 690 L 484 695 L 481 702 L 477 709 L 474 716 L 472 723 L 471 732 L 470 740 L 466 747 L 463 753 L 460 759 L 462 767 L 461 775 L 462 783 L 464 791 L 467 798 L 468 806 L 470 815 L 469 823 L 470 831 L 472 838 L 474 846 L 475 855 L 476 864 L 476 866" stroke="#C8AB8C"/>
<path d="M 867 864 L 869 856 L 872 850 L 876 844 L 880 837 L 881 829 L 879 821 L 879 812 L 880 804 L 881 796 L 883 788 L 884 780 L 885 772 L 886 764 L 887 756 L 885 747 L 881 742 L 878 736 L 876 729 L 873 722 L 870 715 L 865 709 L 861 704 L 859 697 L 858 689 L 855 682 L 850 678 L 848 671 L 844 666 L 842 659 L 838 653 L 832 648 L 825 646 L 819 642 L 816 636 L 812 629 L 808 622 L 802 617 L 795 612 L 788 608 L 782 603 L 774 600 L 768 597 L 762 593 L 756 588 L 749 586 L 741 583 L 734 581 L 727 578 L 719 575 L 711 573 L 703 572 L 694 571 L 686 570 L 679 568 L 670 569 L 663 567 L 654 567 L 646 568 L 638 569 L 630 571 L 621 571 L 612 571 L 605 574 L 598 576 L 591 578 L 582 579 L 575 582 L 570 586 L 564 589 L 558 593 L 552 598 L 544 599 L 537 603 L 531 607 L 525 610 L 519 613 L 513 616 L 509 621 L 504 625 L 498 630 L 493 636 L 489 642 L 484 648 L 478 653 L 474 659 L 473 667 L 468 673 L 463 678 L 459 684 L 455 690 L 452 698 L 447 704 L 446 713 L 444 721 L 442 728 L 439 736 L 437 743 L 435 751 L 433 758 L 432 766 L 431 774 L 430 782 L 430 789 L 431 797 L 434 803 L 437 810 L 436 818 L 435 826 L 438 834 L 441 840 L 440 849 L 441 857 L 442 863" stroke="#C5AB8E"/>
<path d="M 901 861 L 904 854 L 906 847 L 908 840 L 907 832 L 908 823 L 912 816 L 914 799 L 916 792 L 915 784 L 913 777 L 911 769 L 910 761 L 911 753 L 910 745 L 909 737 L 906 730 L 902 724 L 899 717 L 896 710 L 893 694 L 890 687 L 889 678 L 887 671 L 884 665 L 880 660 L 876 654 L 872 649 L 866 644 L 864 637 L 863 629 L 860 623 L 856 616 L 850 611 L 839 604 L 834 599 L 830 594 L 823 592 L 817 588 L 814 582 L 808 577 L 802 574 L 795 574 L 789 571 L 784 567 L 775 567 L 766 567 L 757 556 L 751 552 L 745 549 L 738 547 L 731 545 L 722 544 L 715 542 L 707 541 L 699 540 L 691 538 L 682 538 L 673 538 L 665 537 L 649 537 L 640 538 L 633 540 L 625 539 L 617 540 L 608 541 L 600 543 L 592 545 L 586 548 L 578 549 L 570 551 L 562 554 L 556 557 L 543 563 L 536 566 L 529 569 L 523 572 L 515 575 L 510 580 L 504 583 L 499 588 L 495 593 L 490 598 L 484 601 L 478 605 L 474 610 L 466 620 L 462 625 L 458 632 L 455 638 L 451 645 L 445 650 L 441 655 L 437 660 L 434 666 L 431 672 L 426 678 L 422 685 L 417 691 L 417 699 L 411 713 L 408 719 L 406 728 L 403 734 L 402 743 L 401 751 L 399 759 L 398 767 L 396 774 L 397 782 L 399 790 L 402 796 L 404 803 L 402 818 L 403 827 L 405 834 L 406 842 L 408 849 L 408 858 L 407 860" stroke="#C2AA90"/>
<path d="M 934 858 L 937 850 L 935 842 L 933 835 L 939 823 L 941 816 L 943 808 L 944 799 L 945 791 L 946 783 L 945 767 L 942 759 L 938 752 L 934 746 L 934 737 L 932 730 L 927 715 L 927 708 L 924 700 L 923 692 L 924 684 L 922 677 L 917 664 L 913 657 L 909 652 L 906 645 L 902 639 L 897 632 L 892 626 L 885 613 L 880 607 L 875 601 L 870 595 L 864 590 L 860 585 L 849 578 L 844 574 L 838 569 L 832 564 L 826 559 L 819 556 L 808 548 L 802 545 L 794 542 L 786 540 L 780 535 L 773 531 L 759 524 L 753 521 L 746 519 L 739 517 L 731 514 L 723 512 L 716 508 L 702 511 L 695 510 L 686 510 L 678 509 L 670 508 L 662 507 L 646 503 L 640 506 L 634 509 L 627 512 L 618 512 L 610 511 L 596 512 L 587 513 L 580 515 L 573 517 L 566 519 L 559 521 L 553 524 L 539 530 L 535 535 L 531 540 L 524 542 L 518 545 L 512 548 L 497 552 L 490 556 L 486 563 L 481 569 L 474 573 L 468 577 L 458 586 L 453 592 L 449 597 L 445 603 L 438 607 L 432 613 L 426 625 L 420 630 L 416 637 L 413 643 L 410 650 L 407 658 L 403 663 L 395 676 L 391 682 L 388 688 L 387 696 L 385 704 L 381 710 L 376 725 L 376 734 L 375 742 L 373 750 L 370 757 L 369 765 L 371 781 L 371 790 L 370 799 L 370 807 L 373 814 L 373 822 L 373 837 L 375 845 L 376 854 L 376 858" stroke="#BFAA92"/>
<path d="M 964 854 L 966 846 L 970 832 L 971 824 L 973 816 L 975 808 L 973 792 L 974 784 L 973 776 L 970 770 L 968 754 L 967 748 L 967 739 L 966 730 L 961 717 L 959 710 L 960 701 L 956 685 L 953 678 L 950 671 L 948 664 L 944 648 L 941 642 L 937 636 L 931 630 L 923 620 L 921 613 L 918 607 L 906 598 L 901 592 L 898 586 L 894 580 L 882 570 L 876 566 L 872 561 L 867 556 L 857 547 L 849 544 L 845 538 L 841 532 L 828 525 L 821 521 L 815 518 L 803 510 L 796 508 L 790 505 L 782 504 L 769 500 L 762 497 L 756 494 L 750 490 L 736 484 L 727 484 L 719 483 L 706 478 L 699 475 L 690 475 L 682 476 L 665 474 L 656 475 L 648 476 L 641 478 L 627 484 L 620 482 L 612 480 L 604 481 L 590 485 L 583 487 L 575 488 L 562 492 L 555 496 L 548 499 L 543 504 L 527 506 L 520 510 L 515 514 L 509 518 L 494 523 L 489 527 L 484 532 L 471 538 L 466 542 L 460 546 L 454 551 L 445 562 L 439 567 L 435 572 L 431 577 L 422 587 L 416 590 L 410 593 L 406 598 L 395 608 L 391 614 L 389 622 L 384 637 L 380 643 L 376 650 L 372 656 L 365 668 L 364 676 L 363 684 L 361 691 L 355 705 L 352 712 L 351 720 L 347 735 L 345 742 L 343 749 L 342 757 L 341 773 L 339 780 L 338 788 L 337 796 L 340 811 L 343 817 L 342 825 L 342 833 L 346 847 L 346 854" stroke="#BCAA94"/>
<path d="M 994 851 L 996 844 L 1002 829 L 1001 820 L 998 814 L 1000 798 L 999 789 L 997 775 L 997 766 L 996 758 L 994 741 L 992 733 L 989 726 L 985 711 L 985 704 L 985 695 L 981 681 L 979 674 L 974 660 L 973 652 L 971 645 L 962 633 L 959 627 L 955 622 L 949 608 L 946 600 L 942 595 L 931 585 L 929 578 L 924 572 L 917 561 L 911 558 L 899 550 L 894 545 L 888 539 L 876 530 L 870 525 L 864 520 L 854 510 L 850 505 L 844 500 L 830 494 L 823 491 L 811 483 L 805 479 L 799 476 L 784 471 L 777 468 L 769 468 L 754 465 L 748 462 L 740 461 L 726 457 L 717 457 L 702 453 L 695 451 L 688 449 L 674 444 L 665 444 L 657 445 L 642 448 L 635 446 L 628 446 L 611 448 L 604 451 L 598 456 L 582 457 L 574 458 L 560 463 L 552 465 L 545 467 L 532 473 L 526 477 L 519 479 L 504 484 L 498 487 L 492 490 L 480 498 L 473 502 L 466 514 L 459 518 L 451 519 L 442 529 L 436 533 L 432 538 L 422 546 L 417 550 L 409 552 L 399 560 L 394 567 L 385 578 L 382 585 L 378 590 L 369 603 L 367 610 L 364 617 L 357 628 L 352 634 L 349 640 L 345 655 L 342 661 L 338 666 L 331 678 L 327 683 L 322 696 L 320 703 L 321 711 L 318 729 L 316 737 L 316 746 L 313 762 L 313 771 L 312 779 L 311 796 L 310 804 L 312 819 L 312 827 L 314 834 L 318 849 L 319 851" stroke="#BAAA96"/>
<path d="M 1034 845 L 1037 838 L 1036 822 L 1034 813 L 1037 799 L 1037 790 L 1035 774 L 1033 766 L 1034 750 L 1032 742 L 1029 727 L 1028 719 L 1027 702 L 1024 695 L 1019 681 L 1017 674 L 1012 661 L 1011 653 L 1007 646 L 1003 631 L 1000 625 L 993 612 L 991 605 L 986 592 L 982 587 L 974 574 L 970 567 L 962 557 L 956 552 L 946 540 L 943 534 L 934 523 L 927 520 L 913 515 L 908 509 L 905 502 L 892 494 L 884 493 L 871 482 L 865 479 L 856 470 L 852 464 L 837 458 L 832 454 L 820 446 L 813 444 L 801 438 L 796 434 L 782 431 L 775 428 L 760 426 L 752 425 L 745 425 L 729 422 L 722 419 L 706 415 L 701 411 L 685 411 L 678 411 L 662 409 L 654 409 L 638 411 L 629 411 L 615 409 L 606 410 L 593 418 L 585 419 L 570 421 L 563 421 L 555 420 L 541 426 L 533 429 L 518 435 L 511 438 L 497 446 L 490 450 L 474 454 L 467 458 L 458 467 L 451 470 L 441 479 L 435 483 L 421 488 L 416 494 L 407 506 L 403 512 L 399 518 L 389 528 L 381 532 L 371 541 L 366 547 L 356 558 L 353 564 L 347 576 L 344 582 L 337 593 L 332 597 L 323 610 L 320 617 L 315 632 L 312 638 L 304 651 L 298 657 L 294 663 L 290 678 L 289 687 L 286 703 L 284 711 L 281 727 L 283 734 L 278 748 L 275 755 L 279 769 L 277 776 L 276 793 L 275 801 L 276 816 L 277 825 L 277 841 L 277 845" stroke="#B6AA98"/>
<path d="M 1043 844 L 1043 827 L 1042 819 L 1043 804 L 1044 795 L 1045 778 L 1043 771 L 1041 755 L 1041 746 L 1038 731 L 1036 724 L 1036 708 L 1034 701 L 1031 686 L 1029 679 L 1028 662 L 1026 655 L 1019 643 L 1014 638 L 1007 625 L 1005 618 L 998 604 L 995 598 L 988 587 L 982 575 L 980 566 L 972 555 L 968 550 L 957 541 L 952 537 L 945 523 L 940 518 L 928 511 L 920 509 L 910 498 L 905 492 L 893 486 L 886 483 L 875 476 L 868 474 L 860 463 L 857 457 L 848 448 L 842 443 L 828 437 L 819 437 L 806 432 L 801 428 L 787 422 L 773 417 L 765 419 L 748 417 L 740 418 L 726 414 L 721 410 L 708 404 L 702 401 L 686 403 L 678 402 L 662 400 L 653 401 L 638 398 L 629 398 L 615 402 L 608 404 L 592 408 L 585 410 L 569 410 L 561 408 L 547 412 L 541 417 L 528 425 L 512 429 L 505 433 L 493 440 L 486 442 L 471 446 L 464 450 L 452 458 L 446 463 L 433 470 L 426 473 L 415 482 L 409 486 L 401 498 L 398 504 L 389 515 L 384 520 L 373 527 L 367 531 L 359 542 L 354 548 L 348 561 L 344 568 L 336 579 L 332 585 L 325 596 L 316 607 L 312 612 L 306 625 L 302 632 L 297 646 L 293 651 L 286 664 L 282 669 L 282 685 L 281 694 L 275 708 L 272 716 L 270 730 L 271 738 L 268 753 L 269 761 L 268 778 L 266 785 L 264 801 L 264 810 L 268 825 L 268 834 L 269 844" stroke="#B5AA99"/>
<path d="M 1051 843 L 1050 827 L 1048 820 L 1051 804 L 1053 797 L 1053 781 L 1051 773 L 1049 756 L 1048 748 L 1045 733 L 1044 725 L 1044 711 L 1043 703 L 1042 687 L 1039 680 L 1035 665 L 1034 657 L 1030 642 L 1021 633 L 1018 626 L 1010 614 L 1007 607 L 1001 594 L 997 589 L 992 574 L 988 568 L 983 554 L 981 547 L 970 539 L 964 535 L 957 522 L 953 517 L 941 510 L 934 506 L 922 500 L 912 489 L 906 485 L 896 475 L 892 469 L 880 462 L 872 460 L 863 448 L 858 441 L 846 433 L 840 428 L 823 428 L 815 428 L 804 421 L 796 419 L 784 413 L 777 410 L 761 410 L 746 407 L 738 405 L 724 400 L 716 397 L 700 393 L 692 394 L 675 394 L 666 393 L 651 390 L 642 390 L 625 390 L 619 393 L 604 398 L 596 399 L 580 402 L 572 402 L 557 401 L 544 406 L 538 410 L 526 419 L 519 421 L 505 425 L 499 428 L 487 434 L 480 437 L 467 442 L 459 445 L 445 450 L 440 454 L 430 464 L 424 467 L 412 476 L 405 480 L 394 489 L 384 499 L 379 503 L 371 514 L 366 521 L 356 531 L 351 538 L 342 549 L 340 557 L 332 567 L 327 572 L 321 584 L 318 590 L 311 602 L 305 607 L 297 620 L 292 626 L 287 641 L 283 655 L 279 662 L 275 677 L 274 685 L 269 700 L 267 708 L 263 722 L 261 730 L 263 746 L 262 755 L 262 772 L 259 780 L 258 798 L 256 805 L 255 822 L 257 829 L 262 843" stroke="#B4AA99"/>
<path d="M 1059 841 L 1056 825 L 1058 817 L 1061 801 L 1062 792 L 1060 778 L 1058 769 L 1058 753 L 1055 745 L 1052 730 L 1052 721 L 1051 703 L 1050 686 L 1050 679 L 1043 667 L 1041 659 L 1038 643 L 1035 635 L 1030 621 L 1025 617 L 1016 607 L 1013 600 L 1006 587 L 999 573 L 997 566 L 991 554 L 988 546 L 979 534 L 974 528 L 964 518 L 959 512 L 948 503 L 942 500 L 931 492 L 921 482 L 914 479 L 902 472 L 898 465 L 886 457 L 879 453 L 869 445 L 866 439 L 854 431 L 847 427 L 836 419 L 820 419 L 812 417 L 797 411 L 791 408 L 778 403 L 770 402 L 753 399 L 747 395 L 730 393 L 722 392 L 709 385 L 691 386 L 684 384 L 668 383 L 660 380 L 645 379 L 636 380 L 621 384 L 615 387 L 599 390 L 582 389 L 574 390 L 558 392 L 550 393 L 537 398 L 530 403 L 521 414 L 513 416 L 498 421 L 492 424 L 479 430 L 463 435 L 456 437 L 443 442 L 436 445 L 428 457 L 421 461 L 411 470 L 403 473 L 389 482 L 383 488 L 373 497 L 365 508 L 360 514 L 350 524 L 346 530 L 338 541 L 336 548 L 325 558 L 320 562 L 315 576 L 310 582 L 302 593 L 295 605 L 292 611 L 285 624 L 281 630 L 275 643 L 273 651 L 270 666 L 269 674 L 263 688 L 259 694 L 259 711 L 255 726 L 254 735 L 252 752 L 254 759 L 252 773 L 250 781 L 249 796 L 250 804 L 248 820 L 249 828 L 248 840" stroke="#B4AA9A"/>
<path d="M 1088 836 L 1087 818 L 1088 810 L 1089 793 L 1084 779 L 1083 770 L 1087 755 L 1088 737 L 1086 730 L 1082 715 L 1077 702 L 1075 695 L 1073 679 L 1069 663 L 1067 656 L 1062 642 L 1058 627 L 1055 620 L 1048 607 L 1041 596 L 1037 590 L 1030 578 L 1023 565 L 1020 559 L 1015 544 L 1007 532 L 1004 526 L 998 513 L 987 505 L 980 503 L 971 492 L 960 483 L 956 476 L 946 466 L 936 456 L 928 454 L 918 446 L 908 437 L 902 432 L 890 425 L 877 418 L 871 415 L 860 408 L 847 399 L 840 395 L 823 396 L 812 389 L 807 385 L 792 383 L 779 378 L 771 377 L 757 373 L 746 366 L 738 364 L 720 364 L 705 361 L 696 361 L 681 360 L 665 358 L 658 358 L 644 356 L 638 353 L 621 352 L 606 357 L 598 359 L 581 356 L 566 361 L 560 366 L 546 368 L 531 372 L 524 374 L 509 378 L 499 388 L 492 390 L 478 395 L 467 402 L 463 407 L 450 414 L 434 418 L 427 422 L 415 431 L 403 439 L 399 444 L 386 451 L 376 459 L 371 464 L 359 472 L 349 483 L 345 488 L 338 501 L 329 511 L 324 516 L 314 526 L 305 538 L 302 545 L 292 556 L 284 566 L 280 571 L 271 582 L 266 597 L 265 605 L 257 616 L 249 628 L 248 637 L 244 651 L 241 665 L 237 670 L 233 684 L 233 701 L 232 709 L 231 725 L 229 742 L 225 749 L 221 763 L 221 779 L 220 787 L 214 801 L 216 817 L 217 825 L 220 834" stroke="#B1AA9C"/>
<path d="M 1096 834 L 1097 818 L 1101 812 L 1102 796 L 1100 781 L 1098 773 L 1098 758 L 1098 740 L 1098 731 L 1096 715 L 1092 700 L 1089 694 L 1082 681 L 1078 667 L 1078 658 L 1073 645 L 1068 630 L 1066 623 L 1062 609 L 1053 596 L 1050 589 L 1044 577 L 1035 566 L 1031 560 L 1028 543 L 1022 530 L 1017 526 L 1010 514 L 1000 503 L 996 498 L 984 490 L 974 478 L 965 468 L 959 464 L 949 452 L 938 443 L 933 439 L 922 428 L 910 420 L 903 417 L 886 414 L 875 403 L 870 398 L 858 392 L 844 386 L 837 383 L 824 377 L 807 374 L 800 372 L 784 369 L 768 367 L 763 363 L 749 355 L 735 352 L 728 350 L 713 347 L 698 350 L 690 349 L 676 347 L 658 347 L 650 346 L 634 344 L 620 340 L 612 341 L 597 345 L 581 347 L 572 347 L 558 351 L 544 356 L 536 358 L 519 361 L 506 368 L 500 371 L 486 376 L 474 385 L 468 389 L 457 398 L 441 403 L 434 405 L 421 411 L 409 418 L 404 423 L 393 430 L 381 438 L 376 443 L 365 452 L 354 461 L 349 467 L 339 478 L 330 492 L 320 503 L 312 505 L 303 516 L 294 528 L 290 534 L 284 548 L 276 561 L 271 565 L 264 576 L 258 590 L 252 595 L 246 609 L 240 623 L 237 630 L 232 644 L 227 659 L 225 667 L 221 682 L 220 698 L 218 705 L 219 722 L 217 737 L 213 744 L 211 759 L 208 776 L 211 783 L 206 798 L 203 813 L 203 822 L 206 832" stroke="#B0AA9C"/>
<path d="M 1104 832 L 1107 816 L 1110 810 L 1112 796 L 1110 780 L 1110 764 L 1108 757 L 1109 740 L 1110 723 L 1107 706 L 1105 699 L 1099 684 L 1092 670 L 1089 664 L 1085 649 L 1080 636 L 1078 620 L 1076 613 L 1070 599 L 1063 586 L 1060 579 L 1050 569 L 1044 557 L 1041 541 L 1038 534 L 1028 523 L 1020 511 L 1011 502 L 1005 497 L 997 487 L 987 477 L 982 472 L 973 461 L 962 452 L 954 440 L 949 436 L 938 427 L 925 418 L 921 412 L 906 408 L 890 403 L 879 396 L 875 390 L 860 385 L 848 379 L 837 370 L 831 367 L 816 365 L 800 362 L 792 359 L 774 358 L 761 351 L 747 344 L 741 341 L 726 337 L 710 336 L 703 334 L 688 330 L 675 334 L 660 335 L 653 335 L 637 334 L 621 331 L 605 330 L 597 331 L 583 336 L 566 337 L 558 339 L 545 345 L 530 349 L 515 353 L 508 357 L 496 363 L 481 366 L 475 370 L 463 376 L 449 384 L 440 393 L 433 395 L 419 400 L 406 407 L 397 417 L 391 420 L 378 428 L 368 438 L 361 442 L 351 453 L 341 462 L 331 474 L 326 480 L 318 491 L 306 499 L 301 503 L 292 514 L 284 525 L 276 535 L 273 541 L 266 553 L 259 566 L 249 578 L 245 583 L 237 598 L 234 614 L 231 621 L 226 636 L 221 650 L 215 663 L 215 672 L 211 687 L 206 702 L 204 710 L 203 725 L 201 741 L 200 756 L 199 764 L 197 780 L 201 794 L 195 807 L 194 815 L 195 829" stroke="#AFAA9D"/>
<path d="M 1113 830 L 1116 815 L 1121 800 L 1123 793 L 1121 778 L 1122 761 L 1121 744 L 1119 737 L 1119 719 L 1117 703 L 1112 689 L 1106 677 L 1103 671 L 1098 658 L 1096 643 L 1096 628 L 1094 620 L 1086 608 L 1081 594 L 1072 583 L 1070 576 L 1059 564 L 1053 550 L 1052 537 L 1045 525 L 1041 519 L 1034 508 L 1020 501 L 1011 490 L 1008 484 L 997 474 L 988 462 L 977 452 L 969 442 L 964 436 L 953 427 L 940 420 L 930 412 L 926 406 L 914 398 L 903 391 L 888 388 L 883 384 L 872 375 L 856 373 L 847 362 L 830 358 L 824 355 L 808 353 L 792 350 L 779 345 L 772 343 L 758 340 L 746 332 L 730 329 L 714 326 L 706 325 L 693 318 L 677 320 L 664 322 L 656 321 L 640 321 L 623 323 L 606 322 L 599 321 L 583 324 L 569 329 L 553 332 L 541 338 L 534 340 L 520 344 L 503 345 L 490 353 L 483 355 L 470 361 L 458 369 L 443 373 L 433 381 L 427 385 L 413 390 L 402 398 L 390 406 L 384 411 L 375 420 L 364 429 L 352 438 L 347 442 L 339 453 L 328 462 L 318 472 L 310 485 L 304 490 L 292 500 L 284 510 L 276 523 L 272 528 L 264 539 L 253 548 L 246 560 L 241 574 L 237 579 L 230 591 L 225 607 L 220 621 L 216 628 L 211 642 L 205 655 L 203 670 L 201 677 L 197 691 L 195 708 L 193 723 L 191 741 L 191 750 L 189 766 L 191 784 L 192 799 L 189 805 L 187 819 L 188 828" stroke="#AEAA9E"/>
<path d="M 1128 827 L 1124 813 L 1130 800 L 1133 794 L 1132 777 L 1130 759 L 1130 742 L 1127 727 L 1129 720 L 1127 704 L 1121 690 L 1116 676 L 1110 661 L 1107 655 L 1109 639 L 1108 621 L 1102 607 L 1094 596 L 1090 590 L 1081 580 L 1073 567 L 1065 553 L 1062 538 L 1059 532 L 1055 517 L 1048 506 L 1039 495 L 1028 488 L 1024 483 L 1016 473 L 1003 467 L 992 456 L 981 445 L 976 439 L 966 429 L 954 420 L 942 412 L 932 403 L 928 398 L 919 387 L 908 379 L 892 377 L 880 368 L 874 365 L 861 359 L 851 350 L 835 348 L 821 344 L 813 343 L 797 342 L 783 335 L 768 334 L 755 328 L 750 324 L 735 319 L 720 316 L 705 314 L 691 310 L 683 312 L 666 314 L 650 312 L 633 314 L 627 313 L 611 313 L 595 314 L 580 317 L 565 320 L 558 322 L 544 328 L 530 332 L 514 336 L 499 339 L 493 342 L 480 348 L 467 355 L 455 361 L 438 360 L 432 363 L 423 374 L 410 380 L 398 390 L 386 399 L 380 402 L 369 412 L 356 421 L 345 430 L 336 440 L 332 447 L 320 455 L 311 467 L 303 478 L 292 490 L 286 495 L 278 506 L 268 518 L 258 527 L 249 540 L 244 546 L 237 558 L 231 570 L 224 583 L 220 599 L 217 606 L 211 618 L 203 630 L 198 645 L 192 660 L 190 667 L 188 684 L 183 697 L 183 714 L 183 732 L 181 739 L 184 754 L 181 769 L 178 782 L 183 795 L 182 803 L 178 818 L 180 826" stroke="#ADAA9E"/>
<path d="M 1137 825 L 1143 813 L 1143 796 L 1142 788 L 1140 771 L 1138 755 L 1140 739 L 1142 725 L 1139 710 L 1137 703 L 1132 690 L 1127 677 L 1124 663 L 1122 647 L 1119 631 L 1116 625 L 1112 609 L 1105 598 L 1098 587 L 1094 572 L 1082 564 L 1078 558 L 1073 545 L 1069 531 L 1066 514 L 1057 503 L 1048 492 L 1044 487 L 1033 478 L 1024 469 L 1013 461 L 1003 453 L 992 446 L 987 440 L 978 429 L 967 420 L 956 413 L 946 404 L 937 394 L 933 389 L 923 379 L 913 371 L 897 368 L 884 361 L 871 353 L 865 350 L 854 341 L 840 338 L 824 337 L 807 335 L 793 329 L 785 326 L 769 324 L 756 318 L 742 311 L 727 308 L 712 305 L 705 302 L 689 300 L 675 302 L 659 305 L 641 305 L 627 302 L 619 301 L 604 301 L 592 307 L 576 310 L 560 312 L 544 313 L 535 313 L 525 323 L 512 329 L 495 332 L 483 339 L 468 345 L 461 348 L 446 351 L 430 355 L 418 363 L 407 371 L 395 382 L 390 387 L 378 395 L 363 401 L 352 409 L 344 419 L 333 428 L 329 434 L 320 445 L 310 456 L 300 465 L 291 476 L 284 487 L 279 491 L 270 502 L 260 512 L 249 519 L 243 531 L 235 544 L 229 549 L 224 563 L 220 577 L 211 590 L 208 606 L 202 619 L 197 625 L 191 638 L 186 652 L 181 667 L 179 684 L 175 700 L 173 708 L 174 725 L 173 740 L 175 756 L 170 771 L 169 787 L 171 794 L 171 810 L 167 822" stroke="#ACAA9F"/>
<path d="M 1149 822 L 1154 809 L 1154 793 L 1150 777 L 1148 769 L 1148 753 L 1149 739 L 1151 722 L 1148 707 L 1143 693 L 1141 686 L 1137 671 L 1133 657 L 1131 641 L 1128 625 L 1120 613 L 1118 606 L 1110 593 L 1104 577 L 1096 563 L 1088 553 L 1083 538 L 1081 531 L 1077 515 L 1068 503 L 1057 492 L 1048 480 L 1037 470 L 1028 460 L 1022 457 L 1013 446 L 1002 439 L 991 428 L 981 419 L 969 413 L 964 409 L 952 399 L 944 388 L 934 376 L 924 366 L 912 359 L 905 356 L 889 354 L 878 345 L 864 339 L 852 332 L 836 331 L 828 330 L 814 327 L 798 321 L 783 317 L 767 315 L 756 308 L 744 301 L 737 299 L 722 296 L 707 291 L 689 290 L 673 293 L 657 297 L 649 298 L 634 294 L 618 292 L 602 293 L 590 299 L 576 303 L 568 302 L 553 306 L 536 305 L 521 312 L 507 317 L 493 321 L 481 327 L 477 332 L 463 339 L 448 342 L 433 347 L 420 352 L 407 362 L 401 365 L 386 370 L 377 380 L 365 388 L 353 396 L 342 407 L 339 413 L 328 423 L 318 433 L 308 444 L 300 455 L 289 463 L 285 468 L 277 480 L 268 489 L 259 500 L 247 510 L 238 521 L 233 534 L 228 540 L 218 551 L 214 565 L 208 577 L 201 590 L 197 605 L 195 612 L 189 624 L 181 637 L 177 651 L 175 668 L 172 684 L 169 690 L 164 705 L 163 720 L 165 736 L 166 753 L 160 766 L 158 774 L 162 790 L 163 807 L 159 820" stroke="#ABAAA0"/>
<path d="M 1163 818 L 1163 800 L 1162 784 L 1158 770 L 1157 753 L 1158 745 L 1157 729 L 1157 712 L 1153 697 L 1151 681 L 1146 666 L 1141 651 L 1139 635 L 1135 620 L 1131 614 L 1125 600 L 1117 589 L 1112 576 L 1106 564 L 1100 551 L 1093 538 L 1090 523 L 1083 511 L 1079 505 L 1069 494 L 1061 484 L 1053 472 L 1043 460 L 1033 451 L 1023 442 L 1011 434 L 1000 426 L 990 417 L 986 412 L 974 406 L 964 397 L 958 385 L 948 375 L 938 367 L 927 359 L 914 352 L 902 346 L 894 344 L 882 337 L 869 332 L 856 325 L 840 323 L 829 315 L 812 315 L 798 308 L 782 306 L 773 306 L 760 299 L 745 295 L 731 287 L 715 285 L 697 284 L 680 283 L 666 287 L 651 289 L 644 287 L 629 285 L 614 284 L 598 286 L 583 287 L 570 292 L 555 296 L 540 300 L 526 302 L 518 304 L 503 308 L 490 313 L 478 320 L 467 328 L 451 332 L 436 335 L 424 341 L 411 346 L 405 350 L 395 358 L 381 363 L 371 372 L 360 379 L 350 389 L 340 398 L 332 408 L 321 420 L 315 424 L 303 434 L 295 445 L 286 454 L 276 467 L 268 478 L 260 488 L 250 497 L 240 505 L 231 516 L 228 523 L 218 534 L 212 548 L 206 561 L 200 573 L 195 586 L 190 601 L 183 614 L 175 628 L 172 634 L 169 649 L 168 666 L 163 680 L 157 694 L 156 710 L 150 723 L 154 738 L 156 755 L 153 763 L 147 776 L 149 790 L 151 807 L 151 818" stroke="#AAAAA0"/>
<path d="M 1172 815 L 1172 799 L 1171 781 L 1166 768 L 1166 751 L 1166 744 L 1163 729 L 1167 715 L 1163 700 L 1158 686 L 1156 669 L 1151 654 L 1150 637 L 1146 623 L 1143 616 L 1136 601 L 1129 590 L 1121 578 L 1116 562 L 1108 550 L 1102 537 L 1098 523 L 1091 510 L 1088 504 L 1080 492 L 1070 481 L 1061 470 L 1055 458 L 1045 450 L 1036 439 L 1025 432 L 1014 423 L 1003 414 L 998 410 L 986 401 L 975 394 L 968 381 L 956 371 L 944 364 L 933 356 L 920 348 L 909 340 L 902 337 L 886 331 L 873 325 L 859 319 L 845 314 L 834 307 L 820 302 L 805 299 L 790 295 L 781 296 L 769 289 L 753 287 L 739 282 L 724 279 L 711 276 L 694 277 L 678 275 L 663 279 L 655 278 L 640 275 L 625 277 L 608 277 L 590 277 L 575 281 L 560 284 L 548 292 L 532 293 L 525 295 L 509 297 L 494 300 L 479 303 L 471 313 L 456 316 L 444 324 L 428 328 L 414 336 L 408 339 L 397 348 L 382 354 L 367 360 L 358 369 L 345 378 L 335 390 L 325 401 L 316 412 L 312 417 L 298 424 L 288 432 L 282 445 L 272 455 L 264 467 L 256 478 L 245 486 L 237 496 L 228 507 L 223 512 L 213 521 L 205 534 L 201 549 L 196 562 L 191 575 L 186 588 L 180 602 L 172 614 L 167 620 L 162 636 L 157 652 L 155 668 L 152 684 L 148 699 L 143 712 L 141 728 L 144 745 L 144 753 L 142 767 L 140 784 L 142 802 L 144 816" stroke="#A9AAA1"/>
<path d="M 1190 809 L 1193 794 L 1192 777 L 1189 761 L 1189 745 L 1186 729 L 1182 712 L 1180 696 L 1180 680 L 1181 672 L 1173 660 L 1169 645 L 1168 628 L 1164 614 L 1157 602 L 1147 591 L 1144 575 L 1136 564 L 1126 552 L 1118 539 L 1114 525 L 1108 511 L 1103 497 L 1092 485 L 1084 473 L 1075 463 L 1070 458 L 1062 446 L 1055 434 L 1045 424 L 1034 414 L 1023 406 L 1013 398 L 1003 388 L 994 376 L 982 368 L 969 361 L 956 353 L 947 343 L 935 336 L 923 327 L 909 322 L 892 320 L 887 316 L 871 310 L 858 305 L 848 296 L 836 289 L 821 285 L 806 281 L 792 278 L 778 274 L 763 271 L 749 267 L 734 263 L 722 256 L 707 253 L 692 256 L 676 258 L 663 260 L 655 260 L 640 259 L 623 261 L 607 264 L 592 265 L 577 264 L 562 262 L 547 266 L 535 274 L 520 279 L 504 281 L 490 283 L 475 288 L 460 294 L 445 301 L 432 307 L 419 314 L 413 319 L 401 327 L 389 336 L 376 341 L 361 345 L 349 351 L 340 360 L 331 370 L 319 378 L 309 389 L 296 398 L 287 410 L 277 419 L 267 430 L 256 439 L 248 450 L 238 460 L 235 468 L 224 481 L 214 493 L 204 503 L 199 518 L 193 531 L 188 544 L 182 557 L 173 568 L 168 583 L 158 595 L 153 609 L 149 623 L 143 637 L 140 653 L 134 666 L 130 681 L 128 689 L 127 706 L 127 722 L 124 737 L 124 753 L 126 768 L 125 785 L 128 801 L 127 810" stroke="#A7AAA2"/>
<path d="M 1203 804 L 1202 786 L 1199 770 L 1197 753 L 1196 737 L 1193 721 L 1189 707 L 1193 691 L 1189 675 L 1190 659 L 1182 648 L 1181 634 L 1176 619 L 1171 605 L 1163 594 L 1157 580 L 1150 567 L 1141 556 L 1134 544 L 1129 531 L 1126 515 L 1119 503 L 1112 492 L 1101 484 L 1098 468 L 1084 462 L 1075 452 L 1068 439 L 1061 427 L 1050 418 L 1044 413 L 1034 404 L 1022 396 L 1011 387 L 1002 375 L 992 366 L 980 358 L 968 352 L 959 342 L 950 333 L 938 326 L 926 319 L 912 313 L 897 306 L 881 302 L 866 301 L 854 292 L 841 285 L 829 277 L 817 271 L 800 270 L 787 265 L 771 262 L 754 259 L 741 254 L 726 249 L 712 245 L 696 247 L 679 246 L 663 250 L 646 251 L 630 253 L 613 255 L 596 259 L 583 256 L 567 256 L 551 255 L 537 260 L 522 267 L 511 274 L 495 272 L 480 279 L 465 283 L 452 290 L 436 294 L 421 299 L 409 308 L 398 317 L 385 326 L 372 333 L 357 339 L 345 347 L 335 355 L 324 364 L 312 371 L 302 381 L 292 392 L 280 400 L 272 410 L 264 420 L 259 424 L 247 432 L 238 446 L 229 456 L 224 470 L 212 479 L 202 490 L 195 503 L 190 516 L 184 528 L 178 540 L 171 553 L 164 566 L 158 580 L 151 594 L 145 607 L 139 619 L 134 632 L 134 650 L 128 664 L 122 678 L 119 696 L 119 710 L 115 724 L 113 740 L 113 756 L 112 769 L 116 784 L 120 800 L 120 808" stroke="#A6AAA2"/>
<path d="M 1210 802 L 1211 785 L 1208 768 L 1207 751 L 1203 736 L 1201 719 L 1202 703 L 1200 687 L 1196 673 L 1197 658 L 1195 642 L 1189 628 L 1185 613 L 1178 600 L 1172 587 L 1168 573 L 1160 560 L 1150 551 L 1145 538 L 1140 525 L 1135 512 L 1128 498 L 1120 484 L 1109 477 L 1102 464 L 1088 456 L 1079 446 L 1073 432 L 1064 420 L 1053 412 L 1044 400 L 1032 393 L 1021 386 L 1012 377 L 1003 366 L 993 355 L 984 344 L 972 333 L 959 327 L 943 322 L 931 313 L 917 306 L 905 298 L 889 294 L 873 294 L 862 287 L 847 282 L 839 269 L 825 264 L 808 262 L 795 256 L 780 254 L 764 252 L 749 248 L 734 245 L 720 237 L 704 239 L 687 238 L 672 238 L 656 243 L 648 243 L 632 244 L 616 246 L 599 249 L 584 247 L 567 248 L 551 244 L 538 251 L 524 258 L 510 264 L 494 263 L 482 270 L 467 273 L 452 279 L 437 285 L 421 286 L 410 297 L 398 305 L 386 312 L 374 320 L 363 328 L 350 333 L 336 341 L 326 351 L 314 361 L 304 370 L 294 380 L 282 388 L 270 395 L 263 408 L 251 416 L 241 426 L 234 439 L 225 450 L 217 464 L 206 475 L 197 484 L 190 496 L 184 510 L 177 522 L 168 534 L 163 547 L 157 561 L 151 575 L 145 588 L 138 602 L 132 617 L 127 630 L 126 647 L 121 660 L 116 675 L 112 689 L 112 707 L 109 720 L 103 734 L 102 749 L 100 762 L 101 778 L 108 791 L 111 804" stroke="#A6AAA3"/>
<path d="M 1218 798 L 1218 782 L 1220 765 L 1217 749 L 1212 736 L 1210 718 L 1212 704 L 1210 687 L 1204 675 L 1203 660 L 1200 644 L 1197 629 L 1191 616 L 1187 601 L 1182 588 L 1174 567 L 1166 554 L 1156 546 L 1152 532 L 1147 517 L 1140 503 L 1133 490 L 1123 478 L 1112 469 L 1104 458 L 1095 449 L 1086 440 L 1078 426 L 1069 414 L 1059 406 L 1051 394 L 1038 386 L 1027 378 L 1017 368 L 1008 358 L 998 347 L 987 336 L 976 326 L 961 319 L 946 313 L 936 303 L 921 297 L 909 289 L 897 283 L 881 285 L 860 278 L 849 270 L 837 260 L 823 256 L 808 254 L 796 248 L 780 245 L 763 244 L 749 239 L 736 234 L 722 230 L 706 230 L 691 226 L 676 227 L 660 230 L 646 229 L 633 235 L 617 236 L 601 237 L 586 238 L 571 239 L 556 236 L 542 240 L 529 248 L 513 250 L 498 254 L 484 258 L 469 262 L 454 266 L 442 273 L 420 278 L 408 288 L 394 295 L 383 306 L 371 314 L 357 320 L 346 328 L 332 333 L 323 344 L 311 352 L 303 362 L 292 371 L 280 380 L 270 388 L 258 398 L 247 408 L 236 419 L 230 432 L 220 444 L 212 455 L 202 464 L 194 476 L 186 487 L 181 500 L 173 512 L 166 523 L 159 536 L 150 548 L 143 561 L 139 576 L 131 596 L 125 609 L 122 625 L 118 639 L 116 655 L 110 671 L 106 686 L 101 699 L 99 717 L 94 731 L 90 745 L 94 759 L 94 776 L 99 790 L 100 800" stroke="#A5AAA4"/>
<path d="M 1245 781 L 1248 764 L 1243 749 L 1245 733 L 1243 716 L 1243 698 L 1237 683 L 1235 660 L 1230 645 L 1225 631 L 1219 617 L 1212 606 L 1211 590 L 1206 577 L 1201 563 L 1194 550 L 1187 538 L 1186 523 L 1179 511 L 1169 500 L 1157 482 L 1150 468 L 1142 456 L 1131 447 L 1123 437 L 1115 426 L 1106 415 L 1097 404 L 1086 394 L 1079 379 L 1071 369 L 1060 361 L 1049 352 L 1038 344 L 1023 332 L 1010 325 L 998 316 L 990 306 L 978 297 L 967 290 L 955 280 L 942 274 L 930 266 L 914 262 L 899 258 L 886 252 L 874 245 L 851 238 L 838 233 L 822 233 L 810 224 L 794 219 L 779 213 L 764 210 L 747 208 L 730 204 L 717 208 L 702 201 L 686 199 L 670 201 L 646 202 L 632 208 L 614 208 L 597 209 L 581 208 L 565 210 L 549 214 L 535 216 L 520 218 L 503 219 L 493 228 L 476 230 L 462 235 L 442 242 L 429 248 L 416 254 L 403 259 L 392 268 L 378 275 L 365 284 L 351 289 L 340 296 L 328 304 L 316 314 L 304 322 L 292 330 L 274 342 L 260 349 L 250 360 L 240 369 L 228 379 L 222 391 L 216 405 L 204 413 L 196 423 L 186 434 L 178 446 L 172 459 L 165 472 L 160 487 L 145 500 L 135 511 L 130 525 L 122 537 L 118 551 L 111 563 L 106 577 L 97 590 L 96 606 L 94 622 L 89 636 L 88 653 L 86 668 L 78 688 L 74 703 L 70 718 L 69 736 L 68 753 L 70 768 L 67 779" stroke="#A2AAA6"/>
<path d="M 1258 765 L 1254 750 L 1255 735 L 1253 719 L 1254 702 L 1253 685 L 1246 664 L 1244 648 L 1237 636 L 1231 622 L 1224 609 L 1222 593 L 1216 579 L 1212 565 L 1208 551 L 1208 535 L 1200 523 L 1188 505 L 1178 495 L 1172 481 L 1162 469 L 1156 455 L 1145 445 L 1136 433 L 1132 417 L 1120 409 L 1107 400 L 1097 389 L 1085 370 L 1076 361 L 1065 352 L 1056 342 L 1049 330 L 1036 324 L 1022 318 L 1010 308 L 1000 300 L 990 291 L 972 280 L 960 271 L 945 266 L 934 258 L 920 253 L 906 249 L 894 242 L 883 232 L 870 227 L 855 224 L 839 220 L 817 216 L 804 210 L 789 206 L 776 201 L 761 198 L 746 194 L 731 190 L 714 188 L 698 188 L 680 187 L 664 187 L 643 191 L 629 198 L 613 198 L 597 196 L 580 197 L 565 200 L 550 204 L 534 204 L 518 206 L 501 207 L 488 213 L 464 215 L 451 224 L 438 230 L 427 238 L 412 239 L 399 245 L 388 256 L 375 264 L 365 272 L 349 274 L 337 282 L 319 292 L 305 300 L 295 308 L 286 318 L 274 326 L 265 335 L 252 340 L 241 350 L 232 361 L 222 369 L 210 387 L 202 399 L 191 408 L 182 419 L 176 433 L 168 443 L 161 454 L 154 466 L 144 478 L 137 490 L 128 502 L 117 524 L 112 538 L 104 549 L 98 563 L 90 577 L 84 590 L 84 604 L 82 618 L 78 634 L 79 651 L 72 665 L 62 686 L 61 703 L 58 718 L 59 735 L 58 752 L 56 766" stroke="#A1AAA6"/>
<path d="M 1254 644 L 1246 634 L 1240 619 L 1236 603 L 1236 589 L 1234 580 L 1225 570 L 1222 555 L 1219 539 L 1214 526 L 1208 513 L 1200 502 L 1192 490 L 1186 476 L 1182 471 L 1173 460 L 1167 448 L 1160 437 L 1149 426 L 1143 412 L 1134 400 L 1122 394 L 1109 386 L 1106 379 L 1097 368 L 1086 360 L 1079 347 L 1068 337 L 1056 327 L 1045 317 L 1033 308 L 1019 303 L 1007 294 L 1001 288 L 989 281 L 977 273 L 968 262 L 955 256 L 942 249 L 928 242 L 913 238 L 899 232 L 893 228 L 881 221 L 867 214 L 852 211 L 838 207 L 823 204 L 807 200 L 791 197 L 777 192 L 770 189 L 754 187 L 739 183 L 726 177 L 710 175 L 693 177 L 677 174 L 661 174 L 646 176 L 640 180 L 626 186 L 609 185 L 592 185 L 577 188 L 563 192 L 547 194 L 530 193 L 515 196 L 506 198 L 488 199 L 472 203 L 457 206 L 444 211 L 431 218 L 418 224 L 404 230 L 393 237 L 387 241 L 374 247 L 364 255 L 349 263 L 337 270 L 324 276 L 309 280 L 299 289 L 290 298 L 285 302 L 274 309 L 265 318 L 255 328 L 244 336 L 233 345 L 222 353 L 210 364 L 204 378 L 198 390 L 192 393 L 182 402 L 173 415 L 168 428 L 156 437 L 148 447 L 142 461 L 132 472 L 123 483 L 121 491 L 115 505 L 109 520 L 104 533 L 96 546 L 88 558 L 81 570 L 74 583 L 70 598 L 67 604 L 65 620 L 67 635 L 64 650 L 58 660" stroke="#A0AAA7"/>
<path d="M 1251 626 L 1249 619 L 1247 612 L 1244 604 L 1245 595 L 1246 593" stroke="#9EAAA8"/>
<path d="M 1240 568 L 1233 554 L 1232 546 L 1228 530 L 1219 518 L 1213 506 L 1212 498 L 1203 486 L 1199 472 L 1192 461 L 1186 457 L 1177 444 L 1168 433 L 1162 429 L 1155 418 L 1147 406 L 1141 394 L 1136 390 L 1124 382 L 1115 371 L 1112 364 L 1097 358 L 1090 347 L 1083 335 L 1076 331 L 1067 321 L 1054 315 L 1044 305 L 1038 301 L 1026 294 L 1012 288 L 1007 282 L 996 273 L 986 263 L 975 256 L 970 252 L 958 246 L 946 238 L 939 234 L 926 229 L 912 222 L 897 217 L 890 215 L 880 207 L 866 203 L 851 200 L 845 196 L 830 194 L 814 190 L 806 189 L 791 184 L 779 178 L 762 177 L 755 175 L 741 170 L 726 165 L 717 165 L 700 167 L 684 166 L 666 164 L 659 162 L 644 165 L 630 169 L 613 171 L 606 175 L 591 176 L 574 177 L 566 179 L 551 182 L 534 180 L 519 184 L 511 186 L 494 189 L 476 190 L 469 192 L 455 196 L 440 202 L 427 209 L 422 213 L 409 220 L 396 227 L 382 232 L 376 235 L 363 241 L 351 248 L 343 249 L 330 257 L 318 264 L 303 268 L 299 273 L 290 282 L 278 291 L 272 296 L 262 307 L 252 315 L 239 322 L 234 328 L 225 340 L 213 348 L 203 358 L 198 364 L 189 376 L 180 386 L 174 391 L 167 404 L 160 417 L 148 429 L 144 434 L 136 446 L 130 459 L 124 464 L 116 474 L 112 489 L 105 503 L 102 509 L 96 523 L 91 536 L 84 549 L 81 555 L 75 563" stroke="#9EAAA8"/>
<path d="M 1219 492 L 1211 480 L 1208 473 L 1203 459 L 1194 448 L 1188 444 L 1181 432 L 1171 423 L 1165 418 L 1157 407 L 1153 402 L 1145 389 L 1136 378 L 1131 374 L 1122 364 L 1114 354 L 1107 351 L 1096 341 L 1090 329 L 1084 324 L 1074 313 L 1061 306 L 1054 302 L 1042 293 L 1030 284 L 1025 278 L 1012 270 L 1007 266 L 997 258 L 983 252 L 977 247 L 965 238 L 952 231 L 946 228 L 934 222 L 920 214 L 913 211 L 902 202 L 888 200 L 881 198 L 868 192 L 855 186 L 848 186 L 833 187 L 827 184 L 813 180 L 800 173 L 792 172 L 779 166 L 764 165 L 757 163 L 742 160 L 727 156 L 718 156 L 702 158 L 685 157 L 676 156 L 659 155 L 644 154 L 638 158 L 621 160 L 614 162 L 600 166 L 584 167 L 575 166 L 559 167 L 542 166 L 534 165 L 520 171 L 505 176 L 497 177 L 480 180 L 465 183 L 458 185 L 445 192 L 432 198 L 427 202 L 412 207 L 406 212 L 393 218 L 378 218 L 371 222 L 360 230 L 348 236 L 341 238 L 327 245 L 313 251 L 307 254 L 298 263 L 287 271 L 280 274 L 270 284 L 261 293 L 256 298 L 244 305 L 239 309 L 228 319 L 218 330 L 213 336 L 203 346 L 192 355 L 189 361 L 181 371 L 171 379 L 166 384 L 160 398 L 151 410 L 147 415 L 138 425 L 129 435 L 126 441 L 119 453 L 114 458 L 107 470 L 101 484 L 98 490 L 92 504 L 87 519 L 86 527 L 81 539" stroke="#9DA9A9"/>
<path d="M 1200 439 L 1195 433 L 1188 420 L 1184 415 L 1173 406 L 1170 400 L 1159 390 L 1153 387 L 1145 375 L 1140 369 L 1132 359 L 1127 354 L 1124 348 L 1114 339 L 1107 337 L 1099 326 L 1096 319 L 1083 308 L 1078 304 L 1066 296 L 1059 292 L 1048 283 L 1042 278 L 1036 275 L 1025 266 L 1019 262 L 1008 253 L 1001 249 L 988 242 L 982 238 L 971 228 L 964 224 L 949 220 L 942 218 L 936 214 L 924 208 L 917 205 L 905 197 L 900 193 L 884 189 L 878 186 L 864 181 L 857 178 L 841 178 L 833 177 L 826 175 L 812 169 L 805 166 L 790 163 L 783 160 L 769 154 L 761 153 L 745 150 L 738 150 L 724 146 L 716 146 L 708 149 L 692 146 L 684 144 L 668 141 L 663 145 L 647 146 L 639 147 L 624 151 L 615 152 L 608 155 L 590 155 L 582 156 L 566 155 L 557 155 L 540 156 L 532 156 L 516 157 L 510 161 L 496 169 L 489 171 L 481 170 L 467 174 L 460 176 L 446 181 L 440 187 L 427 194 L 420 197 L 405 202 L 397 204 L 384 209 L 377 207 L 370 209 L 360 219 L 352 221 L 337 226 L 331 230 L 318 239 L 310 242 L 298 250 L 293 256 L 278 259 L 273 264 L 267 268 L 257 277 L 253 282 L 240 289 L 237 296 L 229 308 L 224 314 L 212 322 L 206 326 L 197 336 L 192 340 L 185 343 L 180 356 L 177 362 L 165 371 L 159 376 L 153 389 L 149 396 L 138 407 L 134 412 L 125 422 L 120 427" stroke="#9CA9A9"/>
<path d="M 1181 398 L 1178 392 L 1167 382 L 1159 379 L 1152 366 L 1147 361 L 1142 357 L 1135 345 L 1131 340 L 1127 335 L 1118 324 L 1111 321 L 1102 308 L 1098 301 L 1092 298 L 1080 294 L 1075 290 L 1063 282 L 1057 279 L 1052 274 L 1039 264 L 1034 258 L 1020 251 L 1015 245 L 1010 241 L 996 237 L 991 233 L 986 229 L 976 219 L 969 217 L 955 211 L 948 209 L 942 205 L 928 201 L 919 198 L 908 191 L 902 188 L 896 184 L 882 177 L 875 174 L 867 173 L 852 170 L 844 169 L 830 163 L 822 162 L 813 161 L 799 156 L 791 154 L 777 148 L 770 146 L 763 142 L 746 141 L 737 141 L 730 139 L 717 136 L 710 139 L 694 138 L 687 135 L 680 132 L 662 132 L 654 135 L 638 135 L 630 138 L 622 139 L 608 142 L 602 145 L 586 145 L 580 142 L 571 142 L 554 146 L 546 145 L 537 145 L 520 148 L 512 149 L 499 155 L 494 159 L 486 160 L 470 162 L 464 166 L 449 172 L 443 175 L 437 180 L 425 188 L 417 190 L 409 192 L 394 193 L 387 195 L 373 200 L 366 202 L 360 206 L 348 212 L 341 214 L 328 220 L 322 224 L 316 229 L 303 236 L 296 238 L 292 243 L 276 249 L 271 253 L 261 261 L 256 267 L 251 271 L 237 278 L 232 284 L 227 297 L 222 302 L 218 308 L 206 317 L 199 322 L 190 331 L 184 335 L 177 340 L 170 354 L 165 360 L 158 364 L 149 376 L 146 384 L 136 395 L 133 397" stroke="#9BA9AA"/>
<path d="M 1168 371 L 1164 364 L 1155 355 L 1150 350 L 1146 345 L 1138 333 L 1133 327 L 1129 322 L 1120 310 L 1116 305 L 1112 300 L 1100 291 L 1094 287 L 1086 286 L 1074 276 L 1069 272 L 1062 269 L 1054 259 L 1048 254 L 1044 249 L 1029 244 L 1023 240 L 1019 235 L 1008 228 L 1000 227 L 994 223 L 984 213 L 979 208 L 972 205 L 956 202 L 950 198 L 946 193 L 939 190 L 922 189 L 915 186 L 910 182 L 899 173 L 893 170 L 887 167 L 872 163 L 865 161 L 858 159 L 842 158 L 834 155 L 828 152 L 816 146 L 807 146 L 799 145 L 785 141 L 777 140 L 770 137 L 760 126 L 753 126 L 747 131 L 731 129 L 723 128 L 717 129 L 699 130 L 691 128 L 685 124 L 669 124 L 660 124 L 651 123 L 636 126 L 627 128 L 619 130 L 602 131 L 594 133 L 586 132 L 570 132 L 562 133 L 553 134 L 537 136 L 528 137 L 520 138 L 508 144 L 502 147 L 495 149 L 478 152 L 471 155 L 464 158 L 451 165 L 444 168 L 437 172 L 424 177 L 417 179 L 411 182 L 396 185 L 388 186 L 379 186 L 372 190 L 358 194 L 352 197 L 343 197 L 332 206 L 326 210 L 320 213 L 308 221 L 302 225 L 294 228 L 281 235 L 274 239 L 268 243 L 256 252 L 250 256 L 245 262 L 233 270 L 228 274 L 224 279 L 216 291 L 212 296 L 209 302 L 197 309 L 190 311 L 184 316 L 176 328 L 171 333 L 166 337 L 160 349 L 155 354" stroke="#9AA9AB"/>
<path d="M 1140 323 L 1135 317 L 1131 311 L 1122 299 L 1116 294 L 1109 290 L 1106 284 L 1100 280 L 1089 271 L 1084 265 L 1078 260 L 1071 258 L 1064 256 L 1052 245 L 1046 240 L 1040 236 L 1033 234 L 1028 230 L 1021 226 L 1008 220 L 1002 217 L 997 212 L 990 207 L 985 203 L 974 196 L 967 193 L 959 192 L 954 187 L 948 182 L 932 178 L 923 178 L 916 175 L 911 169 L 906 164 L 894 158 L 886 156 L 880 153 L 873 150 L 866 148 L 849 147 L 840 147 L 833 145 L 828 141 L 821 137 L 805 134 L 797 133 L 789 132 L 780 131 L 774 128 L 768 123 L 754 118 L 746 119 L 737 118 L 728 118 L 721 120 L 706 123 L 700 120 L 693 117 L 684 117 L 675 117 L 659 116 L 650 116 L 641 116 L 632 115 L 625 115 L 612 121 L 605 119 L 596 119 L 587 120 L 578 122 L 561 123 L 553 124 L 545 125 L 538 127 L 530 128 L 521 128 L 508 135 L 502 139 L 495 141 L 486 142 L 477 142 L 462 148 L 456 151 L 450 154 L 444 158 L 437 160 L 422 164 L 415 168 L 409 172 L 403 175 L 396 177 L 381 176 L 374 179 L 367 181 L 360 183 L 353 185 L 338 190 L 332 194 L 326 198 L 321 202 L 315 205 L 304 214 L 297 217 L 290 220 L 284 223 L 277 226 L 271 231 L 257 238 L 251 241 L 245 246 L 241 252 L 237 257 L 224 264 L 220 269 L 216 274 L 211 278 L 207 284 L 196 295 L 190 300 L 188 302" stroke="#99A9AB"/>
<path d="M 1070 231 L 1064 227 L 1058 224 L 1054 219 L 1049 214 L 1045 209 L 1037 207 L 1030 205 L 1025 201 L 1018 199 L 1012 196 L 1005 193 L 999 188 L 993 184 L 988 180 L 982 177 L 975 175 L 966 175 L 960 172 L 954 167 L 950 162 L 944 159 L 937 157 L 931 153 L 924 149 L 918 144 L 909 143 L 901 141 L 896 137 L 892 132 L 888 127 L 882 124 L 873 126 L 866 128 L 859 126 L 853 123 L 847 120 L 841 117 L 834 113 L 826 112 L 817 112 L 808 110 L 801 108 L 793 107 L 784 107 L 775 106 L 768 104 L 761 101 L 753 102 L 746 100 L 739 98 L 732 96 L 724 98 L 717 100 L 709 99 L 701 97 L 693 96 L 686 100 L 678 102 L 670 101 L 662 102 L 653 102 L 647 99 L 640 96 L 631 96 L 622 95 L 614 95 L 607 97 L 599 98 L 591 99 L 584 99 L 575 99 L 566 100 L 558 101 L 549 101 L 542 104 L 535 107 L 527 108 L 518 108 L 509 107 L 502 105 L 494 106 L 488 110 L 482 114 L 477 118 L 471 121 L 462 123 L 455 124 L 448 127 L 440 128 L 432 129 L 427 133 L 422 137 L 417 141 L 410 144 L 403 148 L 396 152 L 389 154 L 380 154 L 373 158 L 366 162 L 357 163 L 350 166 L 344 169 L 337 172 L 329 173 L 322 177 L 316 182 L 310 187 L 304 191 L 297 193 L 291 196 L 284 199 L 277 202 L 270 205 L 265 209 L 262 211" stroke="#97A9AD"/>
<path d="M 1024 183 L 1015 184 L 1007 182 L 1002 177 L 998 172 L 992 168 L 984 165 L 977 163 L 970 161 L 964 156 L 958 151 L 949 149 L 941 146 L 934 143 L 928 139 L 922 135 L 914 133 L 908 129 L 903 124 L 897 121 L 890 119 L 884 116 L 876 115 L 870 112 L 863 110 L 855 107 L 847 105 L 839 104 L 833 101 L 824 101 L 817 99 L 809 96 L 800 96 L 792 96 L 783 96 L 774 95 L 766 94 L 758 92 L 751 90 L 744 88 L 736 87 L 729 87 L 722 89 L 714 91 L 706 90 L 698 88 L 690 87 L 682 89 L 674 90 L 665 90 L 657 90 L 649 88 L 641 87 L 632 87 L 624 86 L 615 84 L 608 82 L 599 82 L 593 85 L 586 88 L 577 89 L 570 91 L 561 91 L 552 91 L 545 93 L 537 92 L 528 92 L 521 94 L 513 95 L 505 94 L 498 92 L 490 93 L 484 96 L 479 100 L 473 104 L 467 108 L 460 111 L 453 113 L 447 116 L 440 118 L 432 120 L 426 124 L 419 126 L 410 128 L 404 131 L 395 131 L 389 134 L 383 138 L 378 142 L 372 145 L 366 149 L 358 152 L 350 154 L 343 156 L 335 159 L 329 162 L 322 165 L 316 169 L 310 174 L 303 177 L 297 181 L 292 182" stroke="#96A9AD"/>
<path d="M 984 151 L 978 148 L 970 145 L 964 141 L 956 139 L 949 137 L 943 134 L 937 129 L 932 124 L 926 120 L 920 115 L 913 112 L 906 110 L 897 109 L 889 108 L 882 106 L 875 104 L 868 101 L 861 99 L 852 99 L 846 96 L 839 92 L 830 91 L 822 90 L 816 85 L 808 84 L 800 85 L 793 87 L 785 86 L 777 85 L 770 83 L 762 81 L 756 77 L 748 76 L 741 78 L 733 78 L 724 77 L 718 80 L 711 82 L 704 80 L 696 79 L 687 78 L 678 79 L 670 80 L 661 80 L 654 78 L 647 76 L 638 77 L 631 79 L 624 77 L 618 74 L 611 72 L 602 72 L 593 74 L 586 77 L 577 78 L 569 79 L 562 81 L 554 79 L 547 79 L 539 80 L 531 78 L 523 77 L 516 79 L 508 81 L 500 82 L 492 83 L 485 85 L 478 88 L 471 90 L 463 91 L 454 91 L 449 97 L 445 103 L 440 107 L 433 110 L 427 113 L 419 115 L 412 115 L 405 117 L 396 118 L 388 119 L 380 121 L 376 126 L 371 130 L 366 136 L 360 141 L 351 142 L 343 143 L 337 144" stroke="#95A9AE"/>
<path d="M 866 80 L 858 78 L 850 76 L 845 72 L 845 71" stroke="#93A9B0"/>
<path d="M 813 60 L 804 60 L 795 60 L 787 62 L 778 62 L 771 59 L 765 56 L 756 56 L 747 56 L 739 55 L 731 56 L 723 54 L 716 52 L 707 52 L 699 51 L 691 50 L 683 52 L 678 57 L 670 57 L 664 54 L 655 53 L 647 54 L 639 53 L 632 51 L 624 50 L 616 51 L 608 50 L 600 51 L 592 53 L 584 53 L 576 52 L 568 51 L 562 48 L 554 49 L 547 51 L 541 56 L 533 55 L 525 56 L 516 58 L 508 59 L 502 60" stroke="#93A9B0"/>
<path d="M 792 54 L 783 54 L 776 52 L 768 51 L 759 51 L 750 51 L 742 49 L 733 48 L 725 47 L 717 46 L 710 46 L 703 46 L 695 45 L 686 45 L 678 47 L 671 47 L 662 47 L 654 47 L 646 48 L 638 45 L 629 45 L 620 45 L 612 44 L 604 44 L 596 45 L 588 44 L 579 42 L 578 42" stroke="#92A9B0"/>
<path d="M 762 46 L 753 46 L 748 44" stroke="#91A9B1"/>
<path d="M 718 39 L 710 40 L 702 42 L 694 41 L 685 40 L 677 41 L 669 40 L 661 41 L 652 41 L 644 40 L 637 37 L 632 36" stroke="#91A9B1"/>
<path d="M 627 36 L 621 39 L 612 39 L 606 38" stroke="#91A9B1"/>
</g></svg>