<svg xmlns="http://www.w3.org/2000/svg" viewBox="0 0 1500 1040" font-family="'Noto Serif JP','Yu Mincho',serif">
<defs>
<filter id="paper"><feTurbulence type="fractalNoise" baseFrequency="0.9" numOctaves="2" result="n"/><feColorMatrix in="n" type="matrix" values="0 0 0 0 0  0 0 0 0 0  0 0 0 0 0  0 0 0 0.04 0"/></filter>
<filter id="grain"><feTurbulence type="fractalNoise" baseFrequency="0.55" numOctaves="3" result="n"/><feColorMatrix in="n" type="matrix" values="0 0 0 0 0  0 0 0 0 0  0 0 0 0 0  0 0 0 0.5 0"/><feComponentTransfer><feFuncA type="linear" slope="0.9"/></feComponentTransfer></filter>
<filter id="soft" x="-30%" y="-30%" width="160%" height="160%"><feGaussianBlur stdDeviation="2.0"/></filter>
<filter id="soft2" x="-30%" y="-30%" width="160%" height="160%"><feGaussianBlur stdDeviation="3.5"/></filter>
</defs>
<rect width="1500" height="1040" fill="#F5EFE4"/>
<rect width="1500" height="1040" filter="url(#paper)" opacity="0.8"/>
<text x="60" y="62" font-size="13" letter-spacing="3" fill="#5E7470" font-family="'EB Garamond',serif" font-style="italic">WATERCOLOR THEME · LEARNED FROM SALMON WATERCOLOUR ART</text>
<text x="60" y="104" font-size="32" fill="#3A3A36" letter-spacing="2">鱗水彩 — Suisai パレット提案</text>
<text x="60" y="134" font-size="14" fill="#6E6658">透明水彩の重なり・粒状・くすんだパステルを、水温スケール（冷→暖）に割り当てる。差し色は珊瑚と藤鼠。</text>
<line x1="60" y1="150" x2="1440" y2="150" stroke="#7FA8C4" stroke-width="2"/>
<g>
<path d="M 223.8 285.0 Q 223.8 285.0 220.6 303.2 Q 217.4 321.4 198.3 336.1 Q 179.2 350.8 151.2 350.1 Q 123.1 349.3 100.4 337.2 Q 77.6 325.1 73.4 305.1 Q 69.3 285.0 72.6 264.5 Q 75.9 244.0 100.3 234.2 Q 124.7 224.4 148.8 229.3 Q 172.8 234.1 195.1 241.3 Q 217.4 248.6 220.6 266.8 Z" fill="#34505C" opacity="0.40" filter="url(#soft2)"/>
<path d="M 231.7 289.0 Q 231.7 289.0 220.4 303.1 Q 209.2 317.3 196.1 333.1 Q 183.1 349.0 157.0 348.6 Q 131.0 348.2 114.9 334.3 Q 98.7 320.4 89.3 304.7 Q 79.9 289.0 92.0 274.8 Q 104.1 260.5 120.4 251.7 Q 136.6 242.8 157.1 242.2 Q 177.6 241.6 198.7 248.3 Q 219.7 255.1 225.7 272.0 Z" fill="#34505C" opacity="0.55" filter="url(#soft)"/>
<path d="M 197.6 291.0 Q 197.6 291.0 196.8 304.8 Q 195.9 318.6 179.3 323.6 Q 162.7 328.7 145.1 332.9 Q 127.5 337.1 112.8 327.8 Q 98.0 318.5 94.6 304.7 Q 91.1 291.0 94.5 277.2 Q 97.8 263.4 113.1 255.3 Q 128.5 247.2 145.2 251.2 Q 161.9 255.2 178.1 259.8 Q 194.4 264.3 196.0 277.6 Z" fill="#34505C" opacity="0.75" filter="url(#soft)"/>
<path d="M 207.7 297.0 Q 207.7 297.0 200.2 305.7 Q 192.7 314.4 183.4 321.1 Q 174.2 327.8 160.8 327.9 Q 147.5 327.9 139.6 320.4 Q 131.8 312.8 129.4 304.9 Q 127.0 297.0 127.1 287.9 Q 127.3 278.7 138.8 275.5 Q 150.2 272.4 161.4 271.0 Q 172.7 269.7 185.2 273.3 Q 197.7 276.9 202.7 286.9 Z" fill="#123242" opacity="0.35" filter="url(#soft)"/>
<clipPath id="cp100"><path d="M 222.2 285.0 Q 222.2 285.0 219.1 302.8 Q 215.9 320.6 197.3 334.9 Q 178.6 349.2 151.2 348.5 Q 123.7 347.8 101.4 336.0 Q 79.2 324.2 75.1 304.6 Q 71.0 285.0 74.3 265.0 Q 77.6 244.9 101.4 235.4 Q 125.3 225.8 148.8 230.6 Q 172.3 235.4 194.1 242.4 Q 216.0 249.4 219.1 267.2 Z"/></clipPath>
<rect x="60.0" y="210" width="181.71428571428572" height="150" filter="url(#grain)" clip-path="url(#cp100)" opacity="0.10"/>
</g>
<text x="151" y="386" text-anchor="middle" font-size="15" fill="#3A3A36">4℃</text>
<text x="151" y="406" text-anchor="middle" font-size="11.5" fill="#6E6658">越冬・年輪</text>
<text x="151" y="424" text-anchor="middle" font-size="11" fill="#8A8576" font-family="'EB Garamond',serif" font-style="italic">藍鼠 slate-teal #34505C</text>
<g>
<path d="M 426.5 285.0 Q 426.5 285.0 423.4 304.1 Q 420.2 323.1 400.5 339.1 Q 380.8 355.1 352.0 351.7 Q 323.3 348.3 303.3 335.1 Q 283.4 321.8 278.1 303.4 Q 272.7 285.0 282.2 268.9 Q 291.8 252.8 305.9 233.6 Q 320.1 214.3 349.4 217.0 Q 378.8 219.6 395.4 235.4 Q 412.1 251.3 419.3 268.2 Z" fill="#7FA8C4" opacity="0.40" filter="url(#soft2)"/>
<path d="M 419.6 289.0 Q 419.6 289.0 420.8 306.7 Q 422.1 324.3 402.1 335.9 Q 382.1 347.4 358.6 342.8 Q 335.0 338.2 318.8 328.2 Q 302.5 318.2 297.2 303.6 Q 291.8 289.0 299.2 275.5 Q 306.6 262.0 321.5 252.5 Q 336.4 242.9 356.5 243.0 Q 376.6 243.2 399.7 248.2 Q 422.9 253.2 421.2 271.1 Z" fill="#7FA8C4" opacity="0.55" filter="url(#soft)"/>
<path d="M 400.1 291.0 Q 400.1 291.0 396.5 304.0 Q 392.9 317.1 378.9 325.8 Q 364.8 334.5 348.0 331.1 Q 331.2 327.7 315.3 322.6 Q 299.5 317.5 289.2 304.2 Q 278.9 291.0 288.7 277.5 Q 298.5 264.0 313.5 255.9 Q 328.5 247.9 347.4 245.8 Q 366.4 243.7 379.6 254.4 Q 392.8 265.0 396.4 278.0 Z" fill="#7FA8C4" opacity="0.75" filter="url(#soft)"/>
<path d="M 406.8 297.0 Q 406.8 297.0 399.2 305.5 Q 391.6 313.9 383.0 321.4 Q 374.4 328.8 361.8 325.9 Q 349.3 322.9 338.9 318.7 Q 328.4 314.5 326.1 305.8 Q 323.9 297.0 325.8 288.0 Q 327.7 279.1 338.9 276.0 Q 350.1 272.8 361.3 271.1 Q 372.6 269.3 381.7 274.9 Q 390.8 280.5 398.8 288.8 Z" fill="#5D8AAA" opacity="0.35" filter="url(#soft)"/>
<clipPath id="cp107"><path d="M 424.9 285.0 Q 424.9 285.0 421.8 303.6 Q 418.7 322.2 399.4 337.8 Q 380.1 353.4 352.0 350.1 Q 323.9 346.8 304.4 333.9 Q 284.8 320.9 279.6 303.0 Q 274.4 285.0 283.7 269.3 Q 293.0 253.6 306.9 234.8 Q 320.8 216.0 349.5 218.6 Q 378.2 221.2 394.5 236.6 Q 410.8 252.1 417.8 268.6 Z"/></clipPath>
<rect x="259.7142857142857" y="210" width="181.71428571428572" height="150" filter="url(#grain)" clip-path="url(#cp107)" opacity="0.10"/>
</g>
<text x="351" y="386" text-anchor="middle" font-size="15" fill="#3A3A36">5–6℃</text>
<text x="351" y="406" text-anchor="middle" font-size="11.5" fill="#6E6658">北西太平洋・移行</text>
<text x="351" y="424" text-anchor="middle" font-size="11" fill="#8A8576" font-family="'EB Garamond',serif" font-style="italic">水縹 dusty blue #7FA8C4</text>
<g>
<path d="M 626.1 285.0 Q 626.1 285.0 617.1 300.8 Q 608.1 316.7 592.9 332.6 Q 577.7 348.5 552.2 343.9 Q 526.8 339.4 503.2 331.5 Q 479.6 323.7 478.4 304.3 Q 477.1 285.0 474.0 263.3 Q 471.0 241.6 496.9 231.4 Q 522.8 221.3 548.5 225.4 Q 574.2 229.5 590.7 241.7 Q 607.3 253.8 616.7 269.4 Z" fill="#6F9C97" opacity="0.40" filter="url(#soft2)"/>
<path d="M 639.3 289.0 Q 639.3 289.0 624.0 303.1 Q 608.7 317.3 592.1 325.2 Q 575.6 333.2 556.3 333.2 Q 537.0 333.2 514.5 328.4 Q 492.1 323.6 483.2 306.3 Q 474.2 289.0 480.7 270.3 Q 487.1 251.6 509.7 243.0 Q 532.4 234.3 556.1 234.7 Q 579.9 235.1 599.5 245.1 Q 619.1 255.1 629.2 272.1 Z" fill="#6F9C97" opacity="0.55" filter="url(#soft)"/>
<path d="M 611.2 291.0 Q 611.2 291.0 603.1 304.7 Q 595.0 318.4 580.4 327.8 Q 565.7 337.2 548.6 331.7 Q 531.5 326.2 514.1 322.5 Q 496.8 318.8 490.0 304.9 Q 483.2 291.0 491.4 277.9 Q 499.6 264.7 514.0 256.6 Q 528.4 248.5 545.5 250.3 Q 562.6 252.1 577.2 258.8 Q 591.8 265.4 601.5 278.2 Z" fill="#6F9C97" opacity="0.75" filter="url(#soft)"/>
<path d="M 596.5 297.0 Q 596.5 297.0 592.6 304.8 Q 588.7 312.5 580.5 318.5 Q 572.2 324.5 560.8 323.3 Q 549.5 322.0 539.2 318.0 Q 529.0 314.0 527.4 305.5 Q 525.8 297.0 526.7 288.1 Q 527.6 279.2 537.6 273.5 Q 547.6 267.8 559.8 268.9 Q 572.0 270.0 584.1 273.7 Q 596.2 277.4 596.4 287.2 Z" fill="#4D7E7D" opacity="0.35" filter="url(#soft)"/>
<clipPath id="cp114"><path d="M 624.4 285.0 Q 624.4 285.0 615.6 300.5 Q 606.9 315.9 592.0 331.4 Q 577.1 347.0 552.2 342.5 Q 527.4 338.1 504.3 330.4 Q 481.2 322.8 479.9 303.9 Q 478.7 285.0 475.7 263.8 Q 472.7 242.6 498.1 232.7 Q 523.4 222.8 548.6 226.8 Q 573.7 230.8 589.9 242.7 Q 606.0 254.5 615.2 269.8 Z"/></clipPath>
<rect x="459.42857142857144" y="210" width="181.71428571428572" height="150" filter="url(#grain)" clip-path="url(#cp114)" opacity="0.10"/>
</g>
<text x="550" y="386" text-anchor="middle" font-size="15" fill="#3A3A36">7℃</text>
<text x="550" y="406" text-anchor="middle" font-size="11.5" fill="#6E6658">沿岸回帰・冷</text>
<text x="550" y="424" text-anchor="middle" font-size="11" fill="#8A8576" font-family="'EB Garamond',serif" font-style="italic">青磁 celadon #6F9C97</text>
<g>
<path d="M 821.2 285.0 Q 821.2 285.0 820.4 304.1 Q 819.7 323.1 797.3 332.9 Q 774.9 342.7 747.6 348.3 Q 720.3 353.9 700.0 338.7 Q 679.6 323.6 672.7 304.3 Q 665.7 285.0 668.7 263.6 Q 671.7 242.1 698.9 235.9 Q 726.2 229.7 752.6 223.6 Q 779.1 217.6 797.4 233.3 Q 815.7 249.0 818.4 267.0 Z" fill="#A6BBA8" opacity="0.40" filter="url(#soft2)"/>
<path d="M 828.9 289.0 Q 828.9 289.0 822.9 305.4 Q 816.9 321.8 796.9 329.3 Q 776.9 336.7 753.5 342.5 Q 730.1 348.3 711.2 335.8 Q 692.3 323.4 684.4 306.2 Q 676.5 289.0 687.3 273.4 Q 698.1 257.7 714.5 244.6 Q 730.8 231.4 755.6 232.4 Q 780.4 233.3 798.6 244.8 Q 816.8 256.2 822.9 272.6 Z" fill="#A6BBA8" opacity="0.55" filter="url(#soft)"/>
<path d="M 794.8 291.0 Q 794.8 291.0 790.4 302.3 Q 786.1 313.5 774.7 322.9 Q 763.4 332.4 747.0 330.1 Q 730.6 327.8 711.4 324.5 Q 692.2 321.3 694.8 306.1 Q 697.5 291.0 697.9 277.6 Q 698.3 264.2 713.7 257.5 Q 729.1 250.8 747.7 246.8 Q 766.2 242.8 776.8 255.3 Q 787.3 267.8 791.0 279.4 Z" fill="#A6BBA8" opacity="0.75" filter="url(#soft)"/>
<path d="M 806.6 297.0 Q 806.6 297.0 799.8 306.0 Q 792.9 314.9 781.9 318.6 Q 770.9 322.2 758.2 326.3 Q 745.6 330.3 737.1 322.2 Q 728.6 314.1 722.3 305.6 Q 715.9 297.0 724.5 289.7 Q 733.1 282.3 741.1 277.1 Q 749.1 271.9 761.8 267.8 Q 774.4 263.7 785.2 270.5 Q 796.0 277.4 801.3 287.2 Z" fill="#849D8E" opacity="0.35" filter="url(#soft)"/>
<clipPath id="cp121"><path d="M 819.6 285.0 Q 819.6 285.0 818.9 303.6 Q 818.2 322.2 796.2 331.8 Q 774.3 341.3 747.6 346.8 Q 721.0 352.2 701.0 337.4 Q 681.1 322.6 674.3 303.8 Q 667.6 285.0 670.5 264.1 Q 673.4 243.1 700.0 237.1 Q 726.7 231.0 752.6 225.1 Q 778.4 219.2 796.4 234.5 Q 814.3 249.9 817.0 267.4 Z"/></clipPath>
<rect x="659.1428571428571" y="210" width="181.71428571428572" height="150" filter="url(#grain)" clip-path="url(#cp121)" opacity="0.10"/>
</g>
<text x="750" y="386" text-anchor="middle" font-size="15" fill="#3A3A36">8℃</text>
<text x="750" y="406" text-anchor="middle" font-size="11.5" fill="#6E6658">索餌・基準</text>
<text x="750" y="424" text-anchor="middle" font-size="11" fill="#8A8576" font-family="'EB Garamond',serif" font-style="italic">白緑 soft sage #A6BBA8</text>
<g>
<path d="M 1046.5 285.0 Q 1046.5 285.0 1028.7 301.8 Q 1010.9 318.5 993.3 331.8 Q 975.7 345.2 951.5 341.1 Q 927.3 337.0 910.4 326.4 Q 893.6 315.7 885.0 300.4 Q 876.5 285.0 877.6 265.6 Q 878.7 246.1 902.5 238.3 Q 926.2 230.4 951.7 225.9 Q 977.1 221.5 999.8 233.3 Q 1022.5 245.1 1034.5 265.1 Z" fill="#C3BE94" opacity="0.40" filter="url(#soft2)"/>
<path d="M 1030.7 289.0 Q 1030.7 289.0 1025.6 306.5 Q 1020.5 324.0 998.4 330.1 Q 976.3 336.1 953.2 341.8 Q 930.1 347.5 909.4 336.3 Q 888.7 325.2 879.9 307.1 Q 871.1 289.0 882.6 272.4 Q 894.1 255.8 914.4 248.3 Q 934.6 240.8 957.7 236.3 Q 980.8 231.7 993.5 246.7 Q 1006.3 261.7 1018.5 275.3 Z" fill="#C3BE94" opacity="0.55" filter="url(#soft)"/>
<path d="M 1004.3 291.0 Q 1004.3 291.0 996.6 303.1 Q 988.9 315.3 977.1 326.4 Q 965.2 337.5 945.5 337.9 Q 925.8 338.4 911.0 328.6 Q 896.2 318.9 896.9 304.9 Q 897.6 291.0 900.3 279.0 Q 903.1 267.0 915.9 258.9 Q 928.8 250.7 947.8 245.8 Q 966.8 240.9 981.1 252.0 Q 995.4 263.0 999.9 277.0 Z" fill="#C3BE94" opacity="0.75" filter="url(#soft)"/>
<path d="M 997.0 297.0 Q 997.0 297.0 996.1 306.7 Q 995.2 316.3 982.7 318.8 Q 970.2 321.3 959.3 322.3 Q 948.3 323.3 938.5 318.6 Q 928.6 313.9 921.3 305.5 Q 914.0 297.0 921.6 288.7 Q 929.1 280.3 938.0 273.9 Q 946.9 267.5 958.6 270.0 Q 970.3 272.6 979.3 277.0 Q 988.2 281.4 992.6 289.2 Z" fill="#A1A07A" opacity="0.35" filter="url(#soft)"/>
<clipPath id="cp128"><path d="M 1044.4 285.0 Q 1044.4 285.0 1027.0 301.4 Q 1009.6 317.7 992.3 330.7 Q 975.1 343.7 951.4 339.8 Q 927.8 335.8 911.3 325.4 Q 894.8 315.0 886.5 300.0 Q 878.1 285.0 879.2 266.0 Q 880.3 247.1 903.5 239.4 Q 926.7 231.7 951.6 227.4 Q 976.5 223.0 998.7 234.5 Q 1020.9 246.1 1032.7 265.5 Z"/></clipPath>
<rect x="858.8571428571429" y="210" width="181.71428571428572" height="150" filter="url(#grain)" clip-path="url(#cp128)" opacity="0.10"/>
</g>
<text x="950" y="386" text-anchor="middle" font-size="15" fill="#3A3A36">9–10℃</text>
<text x="950" y="406" text-anchor="middle" font-size="11.5" fill="#6E6658">オホーツク後期</text>
<text x="950" y="424" text-anchor="middle" font-size="11" fill="#8A8576" font-family="'EB Garamond',serif" font-style="italic">利休 sage-ochre #C3BE94</text>
<g>
<path d="M 1238.1 285.0 Q 1238.1 285.0 1229.1 304.4 Q 1220.1 323.7 1198.1 335.2 Q 1176.0 346.7 1149.9 345.7 Q 1123.7 344.7 1098.9 335.5 Q 1074.0 326.3 1075.6 305.7 Q 1077.3 285.0 1082.2 267.9 Q 1087.1 250.9 1104.9 237.0 Q 1122.7 223.1 1147.4 227.8 Q 1172.0 232.6 1196.2 239.4 Q 1220.4 246.2 1229.2 265.6 Z" fill="#DCC9A6" opacity="0.40" filter="url(#soft2)"/>
<path d="M 1230.1 289.0 Q 1230.1 289.0 1222.5 305.0 Q 1214.8 321.1 1196.1 330.1 Q 1177.3 339.1 1154.1 342.2 Q 1130.8 345.2 1114.5 332.6 Q 1098.3 319.9 1095.2 304.4 Q 1092.2 289.0 1092.9 272.3 Q 1093.7 255.7 1115.2 250.9 Q 1136.6 246.0 1159.3 237.3 Q 1181.9 228.5 1200.2 241.7 Q 1218.6 254.9 1224.3 272.0 Z" fill="#DCC9A6" opacity="0.55" filter="url(#soft)"/>
<path d="M 1194.6 291.0 Q 1194.6 291.0 1192.8 303.8 Q 1190.9 316.6 1178.8 329.0 Q 1166.6 341.4 1147.9 335.5 Q 1129.2 329.7 1115.1 322.8 Q 1100.9 316.0 1090.8 303.5 Q 1080.6 291.0 1086.1 275.9 Q 1091.6 260.7 1109.5 254.4 Q 1127.4 248.0 1146.9 244.5 Q 1166.4 241.1 1182.3 251.2 Q 1198.2 261.3 1196.4 276.2 Z" fill="#DCC9A6" opacity="0.75" filter="url(#soft)"/>
<path d="M 1195.0 297.0 Q 1195.0 297.0 1193.1 305.7 Q 1191.2 314.3 1181.9 320.9 Q 1172.7 327.6 1160.5 325.1 Q 1148.4 322.5 1135.6 319.7 Q 1122.9 316.9 1123.0 307.0 Q 1123.1 297.0 1127.1 289.3 Q 1131.2 281.6 1139.3 275.3 Q 1147.3 269.1 1159.2 269.6 Q 1171.1 270.1 1182.7 274.0 Q 1194.3 278.0 1194.6 287.5 Z" fill="#BAAB8C" opacity="0.35" filter="url(#soft)"/>
<clipPath id="cp135"><path d="M 1236.2 285.0 Q 1236.2 285.0 1227.4 303.9 Q 1218.6 322.8 1197.0 334.0 Q 1175.5 345.2 1149.9 344.2 Q 1124.3 343.2 1100.0 334.3 Q 1075.6 325.3 1077.2 305.2 Q 1078.8 285.0 1083.6 268.3 Q 1088.4 251.7 1105.9 238.1 Q 1123.3 224.5 1147.4 229.2 Q 1171.5 233.8 1195.2 240.5 Q 1218.8 247.1 1227.5 266.0 Z"/></clipPath>
<rect x="1058.5714285714287" y="210" width="181.71428571428572" height="150" filter="url(#grain)" clip-path="url(#cp135)" opacity="0.10"/>
</g>
<text x="1149" y="386" text-anchor="middle" font-size="15" fill="#3A3A36">11–12℃</text>
<text x="1149" y="406" text-anchor="middle" font-size="11.5" fill="#6E6658">沿岸前期</text>
<text x="1149" y="424" text-anchor="middle" font-size="11" fill="#8A8576" font-family="'EB Garamond',serif" font-style="italic">砂色 wheat #DCC9A6</text>
<g>
<path d="M 1435.2 285.0 Q 1435.2 285.0 1428.2 304.7 Q 1421.2 324.4 1398.0 334.5 Q 1374.9 344.6 1349.1 344.6 Q 1323.4 344.6 1304.4 332.3 Q 1285.3 320.0 1270.4 302.5 Q 1255.5 285.0 1271.4 268.1 Q 1287.3 251.1 1307.2 242.4 Q 1327.1 233.8 1349.5 233.0 Q 1371.9 232.2 1395.0 239.7 Q 1418.2 247.2 1426.7 266.1 Z" fill="#E0875F" opacity="0.40" filter="url(#soft2)"/>
<path d="M 1438.5 289.0 Q 1438.5 289.0 1429.9 306.9 Q 1421.4 324.8 1397.7 328.4 Q 1373.9 332.0 1354.4 333.6 Q 1334.9 335.3 1318.3 326.6 Q 1301.7 317.8 1289.1 303.4 Q 1276.4 289.0 1286.4 273.2 Q 1296.4 257.3 1314.3 246.8 Q 1332.1 236.3 1355.9 234.6 Q 1379.7 232.8 1397.7 244.5 Q 1415.8 256.3 1427.1 272.6 Z" fill="#E0875F" opacity="0.55" filter="url(#soft)"/>
<path d="M 1402.2 291.0 Q 1402.2 291.0 1396.8 304.0 Q 1391.4 317.0 1378.7 328.8 Q 1366.0 340.7 1345.9 338.9 Q 1325.7 337.2 1309.3 328.8 Q 1292.9 320.4 1294.2 305.7 Q 1295.6 291.0 1297.6 278.2 Q 1299.6 265.4 1313.1 256.1 Q 1326.6 246.9 1344.7 247.8 Q 1362.9 248.7 1374.4 258.4 Q 1386.0 268.0 1394.1 279.5 Z" fill="#E0875F" opacity="0.75" filter="url(#soft)"/>
<path d="M 1404.5 297.0 Q 1404.5 297.0 1399.8 306.8 Q 1395.0 316.6 1384.2 323.2 Q 1373.3 329.8 1361.2 325.1 Q 1349.0 320.4 1340.7 316.0 Q 1332.3 311.6 1327.0 304.3 Q 1321.7 297.0 1322.6 287.2 Q 1323.4 277.5 1334.7 272.0 Q 1346.0 266.6 1359.7 265.3 Q 1373.4 264.1 1384.8 270.5 Q 1396.2 276.8 1400.3 286.9 Z" fill="#BE6945" opacity="0.35" filter="url(#soft)"/>
<clipPath id="cp142"><path d="M 1433.3 285.0 Q 1433.3 285.0 1426.5 304.2 Q 1419.6 323.5 1396.9 333.4 Q 1374.3 343.2 1349.1 343.2 Q 1324.0 343.2 1305.3 331.2 Q 1286.7 319.1 1272.1 302.1 Q 1257.5 285.0 1273.1 268.5 Q 1288.7 251.9 1308.1 243.5 Q 1327.5 235.0 1349.5 234.2 Q 1371.4 233.4 1394.0 240.8 Q 1416.7 248.1 1425.0 266.6 Z"/></clipPath>
<rect x="1258.2857142857142" y="210" width="181.71428571428572" height="150" filter="url(#grain)" clip-path="url(#cp142)" opacity="0.10"/>
</g>
<text x="1349" y="386" text-anchor="middle" font-size="15" fill="#3A3A36">13℃</text>
<text x="1349" y="406" text-anchor="middle" font-size="11.5" fill="#6E6658">沿岸離脱・最暖</text>
<text x="1349" y="424" text-anchor="middle" font-size="11" fill="#8A8576" font-family="'EB Garamond',serif" font-style="italic">珊瑚 coral #E0875F</text>
<g>
<path d="M 206.4 525.0 Q 206.4 525.0 197.1 537.8 Q 187.7 550.6 170.1 555.8 Q 152.5 561.1 133.7 563.8 Q 114.9 566.5 93.8 560.9 Q 72.7 555.3 70.3 540.2 Q 67.9 525.0 72.7 511.0 Q 77.6 497.1 96.9 491.7 Q 116.3 486.4 136.0 484.3 Q 155.8 482.2 172.0 490.7 Q 188.2 499.1 197.3 512.1 Z" fill="#AE6A55" opacity="0.40" filter="url(#soft2)"/>
<path d="M 198.8 529.0 Q 198.8 529.0 196.8 541.9 Q 194.8 554.8 177.1 560.7 Q 159.5 566.6 141.1 566.3 Q 122.7 566.1 109.9 558.1 Q 97.1 550.1 87.2 539.5 Q 77.4 529.0 87.1 518.4 Q 96.7 507.8 108.0 496.4 Q 119.3 485.0 138.6 489.9 Q 157.8 494.8 177.7 498.3 Q 197.6 501.9 198.2 515.4 Z" fill="#AE6A55" opacity="0.55" filter="url(#soft)"/>
<path d="M 187.0 531.0 Q 187.0 531.0 178.7 540.8 Q 170.4 550.7 158.2 556.8 Q 146.1 563.0 131.2 562.5 Q 116.3 562.1 106.4 555.2 Q 96.5 548.2 93.8 539.6 Q 91.0 531.0 92.3 521.7 Q 93.6 512.3 104.9 505.9 Q 116.1 499.6 131.7 498.0 Q 147.3 496.5 157.4 504.6 Q 167.6 512.7 177.3 521.9 Z" fill="#AE6A55" opacity="0.75" filter="url(#soft)"/>
<path d="M 172.4 537.0 Q 172.4 537.0 174.3 544.6 Q 176.2 552.1 165.1 553.9 Q 154.1 555.6 143.5 558.6 Q 133.0 561.6 123.5 556.8 Q 114.0 552.0 114.4 544.5 Q 114.9 537.0 116.5 530.5 Q 118.1 524.0 126.7 520.4 Q 135.2 516.8 145.0 516.8 Q 154.9 516.8 164.7 519.7 Q 174.5 522.7 173.5 529.9 Z" fill="#8C4C3B" opacity="0.35" filter="url(#soft)"/>
<clipPath id="cp300"><path d="M 204.9 525.0 Q 204.9 525.0 195.7 537.5 Q 186.6 550.0 169.3 555.1 Q 152.1 560.2 133.7 562.9 Q 115.3 565.5 94.7 560.1 Q 74.0 554.6 71.7 539.8 Q 69.4 525.0 74.1 511.4 Q 78.8 497.7 97.8 492.5 Q 116.7 487.3 136.0 485.3 Q 155.3 483.2 171.2 491.5 Q 187.0 499.7 195.9 512.4 Z"/></clipPath>
<rect x="60" y="470" width="150" height="110" filter="url(#grain)" clip-path="url(#cp300)" opacity="0.10"/>
</g>
<text x="230" y="510" font-size="15" fill="#3A3A36">弁柄 dusty brick</text>
<text x="230" y="532" font-size="12" fill="#6E6658">河川遡上・死</text>
<text x="230" y="552" font-size="11.5" fill="#8A8576" font-family="'EB Garamond',serif" font-style="italic">#AE6A55</text>
<g>
<path d="M 627.4 525.0 Q 627.4 525.0 617.1 537.6 Q 606.8 550.2 592.3 561.1 Q 577.8 572.0 555.7 570.6 Q 533.5 569.3 517.1 560.3 Q 500.7 551.4 499.3 538.2 Q 497.9 525.0 499.7 512.0 Q 501.4 498.9 517.1 489.0 Q 532.7 479.1 553.4 482.4 Q 574.1 485.7 590.9 492.5 Q 607.7 499.4 617.6 512.2 Z" fill="#B3A6CB" opacity="0.40" filter="url(#soft2)"/>
<path d="M 614.2 529.0 Q 614.2 529.0 616.0 542.6 Q 617.7 556.2 598.1 560.4 Q 578.6 564.7 559.5 567.7 Q 540.4 570.8 528.5 560.5 Q 516.5 550.3 509.5 539.7 Q 502.4 529.0 504.3 515.9 Q 506.2 502.7 522.9 494.2 Q 539.7 485.8 560.9 485.9 Q 582.1 486.1 595.2 496.2 Q 608.3 506.3 611.3 517.7 Z" fill="#B3A6CB" opacity="0.55" filter="url(#soft)"/>
<path d="M 591.5 531.0 Q 591.5 531.0 587.2 539.0 Q 582.8 546.9 573.5 552.9 Q 564.2 559.0 549.1 562.9 Q 534.1 566.9 525.2 557.6 Q 516.3 548.3 507.7 539.7 Q 499.1 531.0 503.8 520.4 Q 508.5 509.8 522.3 504.7 Q 536.2 499.7 550.2 501.4 Q 564.1 503.2 579.1 506.3 Q 594.1 509.5 592.8 520.2 Z" fill="#B3A6CB" opacity="0.75" filter="url(#soft)"/>
<path d="M 598.6 537.0 Q 598.6 537.0 593.7 542.7 Q 588.7 548.5 581.5 552.3 Q 574.3 556.1 565.0 556.2 Q 555.6 556.3 546.5 553.3 Q 537.5 550.3 532.5 543.7 Q 527.6 537.0 532.8 530.5 Q 538.1 523.9 545.9 518.9 Q 553.7 513.9 564.1 515.7 Q 574.5 517.5 582.7 521.0 Q 590.9 524.4 594.8 530.7 Z" fill="#9188B1" opacity="0.35" filter="url(#soft)"/>
<clipPath id="cp307"><path d="M 625.8 525.0 Q 625.8 525.0 615.8 537.3 Q 605.7 549.6 591.5 560.2 Q 577.3 570.9 555.6 569.5 Q 534.0 568.2 517.9 559.5 Q 501.8 550.8 500.5 537.9 Q 499.2 525.0 500.9 512.3 Q 502.6 499.6 517.9 489.9 Q 533.2 480.2 553.4 483.4 Q 573.7 486.6 590.1 493.3 Q 606.6 500.0 616.2 512.5 Z"/></clipPath>
<rect x="480" y="470" width="150" height="110" filter="url(#grain)" clip-path="url(#cp307)" opacity="0.10"/>
</g>
<text x="650" y="510" font-size="15" fill="#3A3A36">藤鼠 periwinkle</text>
<text x="650" y="532" font-size="12" fill="#6E6658">スモルト/婚姻色 差し色</text>
<text x="650" y="552" font-size="11.5" fill="#8A8576" font-family="'EB Garamond',serif" font-style="italic">#B3A6CB</text>
<g>
<circle cx="1180" cy="720" r="210.0" fill="#749F98" opacity="0.92"/>
<circle cx="1180" cy="720" r="204.8" fill="#7DA7C0" opacity="0.92"/>
<circle cx="1180" cy="720" r="199.5" fill="#3F5D6B" opacity="0.92"/>
<circle cx="1180" cy="720" r="194.2" fill="#7CA6BD" opacity="0.92"/>
<circle cx="1180" cy="720" r="189.0" fill="#9BB5A4" opacity="0.92"/>
<circle cx="1180" cy="720" r="183.8" fill="#8EADA0" opacity="0.92"/>
<circle cx="1180" cy="720" r="178.5" fill="#78A3B2" opacity="0.92"/>
<circle cx="1180" cy="720" r="173.2" fill="#56788B" opacity="0.92"/>
<circle cx="1180" cy="720" r="168.0" fill="#537486" opacity="0.92"/>
<circle cx="1180" cy="720" r="162.8" fill="#7CA6BC" opacity="0.92"/>
<circle cx="1180" cy="720" r="157.5" fill="#709D9A" opacity="0.92"/>
<circle cx="1180" cy="720" r="152.2" fill="#A7BBA7" opacity="0.92"/>
<circle cx="1180" cy="720" r="147.0" fill="#9CB5A5" opacity="0.92"/>
<circle cx="1180" cy="720" r="141.8" fill="#729E9F" opacity="0.92"/>
<circle cx="1180" cy="720" r="136.5" fill="#7DA7C0" opacity="0.92"/>
<circle cx="1180" cy="720" r="131.2" fill="#507183" opacity="0.92"/>
<circle cx="1180" cy="720" r="126.0" fill="#3B5865" opacity="0.92"/>
<circle cx="1180" cy="720" r="120.7" fill="#486878" opacity="0.92"/>
<circle cx="1180" cy="720" r="115.5" fill="#56788B" opacity="0.92"/>
<circle cx="1180" cy="720" r="110.2" fill="#64889E" opacity="0.92"/>
<circle cx="1180" cy="720" r="105.0" fill="#7198B1" opacity="0.92"/>
<circle cx="1180" cy="720" r="99.8" fill="#7FA8C4" opacity="0.92"/>
<circle cx="1180" cy="720" r="94.5" fill="#7CA6BC" opacity="0.92"/>
<circle cx="1180" cy="720" r="89.2" fill="#79A4B4" opacity="0.92"/>
<circle cx="1180" cy="720" r="84.0" fill="#76A1AB" opacity="0.92"/>
<circle cx="1180" cy="720" r="78.8" fill="#729E9F" opacity="0.92"/>
<circle cx="1180" cy="720" r="73.5" fill="#87A99E" opacity="0.92"/>
<circle cx="1180" cy="720" r="68.2" fill="#A8BBA6" opacity="0.92"/>
<circle cx="1180" cy="720" r="63.0" fill="#B6BD9D" opacity="0.92"/>
<circle cx="1180" cy="720" r="57.8" fill="#C3BE94" opacity="0.92"/>
<circle cx="1180" cy="720" r="52.5" fill="#CCC29A" opacity="0.92"/>
<circle cx="1180" cy="720" r="47.2" fill="#D4C6A1" opacity="0.92"/>
<circle cx="1180" cy="720" r="42.0" fill="#DCC5A2" opacity="0.92"/>
<circle cx="1180" cy="720" r="36.8" fill="#DEA681" opacity="0.92"/>
<circle cx="1180" cy="720" r="31.5" fill="#E08860" opacity="0.92"/>
<circle cx="1180" cy="720" r="26.2" fill="#DEAE89" opacity="0.92"/>
<circle cx="1180" cy="720" r="21.0" fill="#D8C7A3" opacity="0.92"/>
<circle cx="1180" cy="720" r="15.8" fill="#CDC29B" opacity="0.92"/>
<circle cx="1180" cy="720" r="10.5" fill="#C1BE96" opacity="0.92"/>
<circle cx="1180" cy="720" r="5.2" fill="#AFBCA2" opacity="0.92"/>
</g>
<clipPath id="ringcp"><circle cx="1180" cy="720" r="210"/></clipPath>
<rect x="970" y="510" width="420" height="420" filter="url(#grain)" clip-path="url(#ringcp)" opacity="0.10"/>
<circle cx="1180" cy="720" r="125.9" fill="none" stroke="#2B3F4A" stroke-width="2" stroke-opacity="0.45"/>
<circle cx="1180" cy="720" r="168.2" fill="none" stroke="#2B3F4A" stroke-width="2" stroke-opacity="0.45"/>
<circle cx="1180" cy="720" r="196.1" fill="none" stroke="#2B3F4A" stroke-width="2" stroke-opacity="0.45"/>
<circle cx="1180" cy="720" r="4" fill="#3A3A36"/>
<text x="1180" y="964" text-anchor="middle" font-size="13" fill="#6E6658">水彩テーマ適用イメージ（同心円版）</text>
<text x="60" y="620" font-size="14" fill="#3A3A36">テーマの定義（水彩らしさ）</text>
<text x="60" y="646" font-size="12" fill="#6E6658">・透明な washを2〜3層重ね、彩度を抑え光を通す。</text>
<text x="60" y="668" font-size="12" fill="#6E6658">・縁はにじませ、ピグメントの溜まり（濃い縁）を残す。</text>
<text x="60" y="690" font-size="12" fill="#6E6658">・粒状（granulation）の質感をうっすら全面に。</text>
<text x="60" y="712" font-size="12" fill="#6E6658">・基調は生成りの紙 #F5EFE4。線（隆起線）は淡墨で残す。</text>
<text x="60" y="734" font-size="12" fill="#6E6658">・冷=藍鼠/水縹、暖=砂/珊瑚。婚姻色の藤鼠を差し色に。</text>
<text x="60" y="790" font-size="11.5" fill="#8A8576" font-family="'EB Garamond',serif" font-style="italic">Source palette seen in ref: #94C5EC #304A57 #35696D #D9C9BF #E08561 (VerkerkMonique 他)</text>
<text x="60" y="1014" font-size="11" fill="#9A9486" font-family="'EB Garamond',serif" font-style="italic">承認後、この水彩テーマで「同心円版」と「実トレース版（4808:1257）」を作成します。色温度対応は変更なし、色域のみ水彩へ。</text>
</svg>