<svg xmlns="http://www.w3.org/2000/svg"
  width="340" height="85"
  viewBox="0 0 340.0 84.9">
  <rect width="340" height="85" fill="#f8f8f6"/>
  <g transform="translate(20.0,42.4)">
    <path d="M 0.00,-0.00 L 3.75,-8.52 L 7.50,-11.77 L 11.25,-14.12 L 15.00,-16.00 L 18.75,-17.56 L 22.50,-18.90 L 26.25,-20.06 L 30.00,-21.07 L 33.75,-21.96 L 37.50,-22.75 L 41.25,-23.44 L 45.00,-24.05 L 48.75,-24.59 L 52.50,-25.06 L 56.25,-25.47 L 60.00,-25.82 L 63.75,-26.12 L 67.50,-26.37 L 71.25,-26.57 L 75.00,-26.74 L 78.75,-26.86 L 82.50,-26.94 L 86.25,-26.99 L 90.00,-27.01 L 93.75,-26.99 L 97.50,-26.95 L 101.25,-26.87 L 105.00,-26.77 L 108.75,-26.64 L 112.50,-26.49 L 116.25,-26.31 L 120.00,-26.11 L 123.75,-25.89 L 127.50,-25.65 L 131.25,-25.39 L 135.00,-25.11 L 138.75,-24.82 L 142.50,-24.50 L 146.25,-24.17 L 150.00,-23.82 L 153.75,-23.46 L 157.50,-23.08 L 161.25,-22.69 L 165.00,-22.29 L 168.75,-21.87 L 172.50,-21.44 L 176.25,-20.99 L 180.00,-20.54 L 183.75,-20.07 L 187.50,-19.59 L 191.25,-19.10 L 195.00,-18.60 L 198.75,-18.08 L 202.50,-17.56 L 206.25,-17.03 L 210.00,-16.49 L 213.75,-15.94 L 217.50,-15.37 L 221.25,-14.80 L 225.00,-14.22 L 228.75,-13.63 L 232.50,-13.03 L 236.25,-12.42 L 240.00,-11.80 L 243.75,-11.18 L 247.50,-10.54 L 251.25,-9.89 L 255.00,-9.24 L 258.75,-8.57 L 262.50,-7.90 L 266.25,-7.21 L 270.00,-6.51 L 273.75,-5.81 L 277.50,-5.09 L 281.25,-4.37 L 285.00,-3.63 L 288.75,-2.88 L 292.50,-2.12 L 296.25,-1.35 L 300.00,-0.57 L 296.25,1.35 L 292.50,2.12 L 288.75,2.88 L 285.00,3.63 L 281.25,4.37 L 277.50,5.09 L 273.75,5.81 L 270.00,6.51 L 266.25,7.21 L 262.50,7.90 L 258.75,8.57 L 255.00,9.24 L 251.25,9.89 L 247.50,10.54 L 243.75,11.18 L 240.00,11.80 L 236.25,12.42 L 232.50,13.03 L 228.75,13.63 L 225.00,14.22 L 221.25,14.80 L 217.50,15.37 L 213.75,15.94 L 210.00,16.49 L 206.25,17.03 L 202.50,17.56 L 198.75,18.08 L 195.00,18.60 L 191.25,19.10 L 187.50,19.59 L 183.75,20.07 L 180.00,20.54 L 176.25,20.99 L 172.50,21.44 L 168.75,21.87 L 165.00,22.29 L 161.25,22.69 L 157.50,23.08 L 153.75,23.46 L 150.00,23.82 L 146.25,24.17 L 142.50,24.50 L 138.75,24.82 L 135.00,25.11 L 131.25,25.39 L 127.50,25.65 L 123.75,25.89 L 120.00,26.11 L 116.25,26.31 L 112.50,26.49 L 108.75,26.64 L 105.00,26.77 L 101.25,26.87 L 97.50,26.95 L 93.75,26.99 L 90.00,27.01 L 86.25,26.99 L 82.50,26.94 L 78.75,26.86 L 75.00,26.74 L 71.25,26.57 L 67.50,26.37 L 63.75,26.12 L 60.00,25.82 L 56.25,25.47 L 52.50,25.06 L 48.75,24.59 L 45.00,24.05 L 41.25,23.44 L 37.50,22.75 L 33.75,21.96 L 30.00,21.07 L 26.25,20.06 L 22.50,18.90 L 18.75,17.56 L 15.00,16.00 L 11.25,14.12 L 7.50,11.77 L 3.75,8.52 L 0.00,0.00 Z"
      fill="#c0d0d8" stroke="#3a5070" stroke-width="1.5"
      stroke-linejoin="round"/>
  </g>
  <!-- Stage 5: 沿岸回帰 / Coastal -->
  <!-- Length: 65cm  Thickness ratio: 0.18 -->
  <!-- 回帰。65cm/3.7kg。脂乗り最高（ケイジ/アキアジ）。 -->
</svg>