<svg xmlns="http://www.w3.org/2000/svg"
  width="340" height="87"
  viewBox="0 0 340.0 87.4">
  <rect width="340" height="87" fill="#f8f8f6"/>
  <g transform="translate(20.0,43.7)">
    <path d="M 0.00,-0.00 L 3.75,-9.00 L 7.50,-12.42 L 11.25,-14.90 L 15.00,-16.88 L 18.75,-18.54 L 22.50,-19.95 L 26.25,-21.17 L 30.00,-22.24 L 33.75,-23.18 L 37.50,-24.01 L 41.25,-24.74 L 45.00,-25.39 L 48.75,-25.96 L 52.50,-26.45 L 56.25,-26.88 L 60.00,-27.25 L 63.75,-27.57 L 67.50,-27.83 L 71.25,-28.05 L 75.00,-28.22 L 78.75,-28.35 L 82.50,-28.44 L 86.25,-28.49 L 90.00,-28.51 L 93.75,-28.49 L 97.50,-28.44 L 101.25,-28.36 L 105.00,-28.26 L 108.75,-28.12 L 112.50,-27.96 L 116.25,-27.77 L 120.00,-27.56 L 123.75,-27.33 L 127.50,-27.08 L 131.25,-26.80 L 135.00,-26.51 L 138.75,-26.19 L 142.50,-25.86 L 146.25,-25.51 L 150.00,-25.15 L 153.75,-24.76 L 157.50,-24.37 L 161.25,-23.95 L 165.00,-23.52 L 168.75,-23.08 L 172.50,-22.63 L 176.25,-22.16 L 180.00,-21.68 L 183.75,-21.18 L 187.50,-20.68 L 191.25,-20.16 L 195.00,-19.63 L 198.75,-19.09 L 202.50,-18.54 L 206.25,-17.98 L 210.00,-17.40 L 213.75,-16.82 L 217.50,-16.23 L 221.25,-15.62 L 225.00,-15.01 L 228.75,-14.39 L 232.50,-13.76 L 236.25,-13.11 L 240.00,-12.46 L 243.75,-11.80 L 247.50,-11.12 L 251.25,-10.44 L 255.00,-9.75 L 258.75,-9.05 L 262.50,-8.33 L 266.25,-7.61 L 270.00,-6.88 L 273.75,-6.13 L 277.50,-5.38 L 281.25,-4.61 L 285.00,-3.83 L 288.75,-3.04 L 292.50,-2.24 L 296.25,-1.43 L 300.00,-0.60 L 296.25,1.43 L 292.50,2.24 L 288.75,3.04 L 285.00,3.83 L 281.25,4.61 L 277.50,5.38 L 273.75,6.13 L 270.00,6.88 L 266.25,7.61 L 262.50,8.33 L 258.75,9.05 L 255.00,9.75 L 251.25,10.44 L 247.50,11.12 L 243.75,11.80 L 240.00,12.46 L 236.25,13.11 L 232.50,13.76 L 228.75,14.39 L 225.00,15.01 L 221.25,15.62 L 217.50,16.23 L 213.75,16.82 L 210.00,17.40 L 206.25,17.98 L 202.50,18.54 L 198.75,19.09 L 195.00,19.63 L 191.25,20.16 L 187.50,20.68 L 183.75,21.18 L 180.00,21.68 L 176.25,22.16 L 172.50,22.63 L 168.75,23.08 L 165.00,23.52 L 161.25,23.95 L 157.50,24.37 L 153.75,24.76 L 150.00,25.15 L 146.25,25.51 L 142.50,25.86 L 138.75,26.19 L 135.00,26.51 L 131.25,26.80 L 127.50,27.08 L 123.75,27.33 L 120.00,27.56 L 116.25,27.77 L 112.50,27.96 L 108.75,28.12 L 105.00,28.26 L 101.25,28.36 L 97.50,28.44 L 93.75,28.49 L 90.00,28.51 L 86.25,28.49 L 82.50,28.44 L 78.75,28.35 L 75.00,28.22 L 71.25,28.05 L 67.50,27.83 L 63.75,27.57 L 60.00,27.25 L 56.25,26.88 L 52.50,26.45 L 48.75,25.96 L 45.00,25.39 L 41.25,24.74 L 37.50,24.01 L 33.75,23.18 L 30.00,22.24 L 26.25,21.17 L 22.50,19.95 L 18.75,18.54 L 15.00,16.88 L 11.25,14.90 L 7.50,12.42 L 3.75,9.00 L 0.00,0.00 Z"
      fill="#b8c880" stroke="#4a5830" stroke-width="1.5"
      stroke-linejoin="round"/>
  </g>
  <!-- Stage 2: 稚魚 / Fry -->
  <!-- Length: 5cm  Thickness ratio: 0.19 -->
  <!-- パーマーク期。放流時5cm/1g。 -->
</svg>