<svg xmlns="http://www.w3.org/2000/svg"
  width="340" height="77"
  viewBox="0 0 340.0 77.4">
  <rect width="340" height="77" fill="#f8f8f6"/>
  <g transform="translate(20.0,38.7)">
    <path d="M 0.00,-0.00 L 3.75,-7.10 L 7.50,-9.81 L 11.25,-11.77 L 15.00,-13.33 L 18.75,-14.63 L 22.50,-15.75 L 26.25,-16.72 L 30.00,-17.56 L 33.75,-18.30 L 37.50,-18.96 L 41.25,-19.54 L 45.00,-20.04 L 48.75,-20.49 L 52.50,-20.88 L 56.25,-21.22 L 60.00,-21.52 L 63.75,-21.76 L 67.50,-21.97 L 71.25,-22.14 L 75.00,-22.28 L 78.75,-22.38 L 82.50,-22.45 L 86.25,-22.49 L 90.00,-22.51 L 93.75,-22.49 L 97.50,-22.45 L 101.25,-22.39 L 105.00,-22.31 L 108.75,-22.20 L 112.50,-22.07 L 116.25,-21.93 L 120.00,-21.76 L 123.75,-21.58 L 127.50,-21.38 L 131.25,-21.16 L 135.00,-20.93 L 138.75,-20.68 L 142.50,-20.42 L 146.25,-20.14 L 150.00,-19.85 L 153.75,-19.55 L 157.50,-19.24 L 161.25,-18.91 L 165.00,-18.57 L 168.75,-18.22 L 172.50,-17.86 L 176.25,-17.49 L 180.00,-17.11 L 183.75,-16.72 L 187.50,-16.32 L 191.25,-15.91 L 195.00,-15.50 L 198.75,-15.07 L 202.50,-14.64 L 206.25,-14.19 L 210.00,-13.74 L 213.75,-13.28 L 217.50,-12.81 L 221.25,-12.34 L 225.00,-11.85 L 228.75,-11.36 L 232.50,-10.86 L 236.25,-10.35 L 240.00,-9.84 L 243.75,-9.31 L 247.50,-8.78 L 251.25,-8.24 L 255.00,-7.70 L 258.75,-7.14 L 262.50,-6.58 L 266.25,-6.01 L 270.00,-5.43 L 273.75,-4.84 L 277.50,-4.24 L 281.25,-3.64 L 285.00,-3.02 L 288.75,-2.40 L 292.50,-1.77 L 296.25,-1.13 L 300.00,-0.47 L 296.25,1.13 L 292.50,1.77 L 288.75,2.40 L 285.00,3.02 L 281.25,3.64 L 277.50,4.24 L 273.75,4.84 L 270.00,5.43 L 266.25,6.01 L 262.50,6.58 L 258.75,7.14 L 255.00,7.70 L 251.25,8.24 L 247.50,8.78 L 243.75,9.31 L 240.00,9.84 L 236.25,10.35 L 232.50,10.86 L 228.75,11.36 L 225.00,11.85 L 221.25,12.34 L 217.50,12.81 L 213.75,13.28 L 210.00,13.74 L 206.25,14.19 L 202.50,14.64 L 198.75,15.07 L 195.00,15.50 L 191.25,15.91 L 187.50,16.32 L 183.75,16.72 L 180.00,17.11 L 176.25,17.49 L 172.50,17.86 L 168.75,18.22 L 165.00,18.57 L 161.25,18.91 L 157.50,19.24 L 153.75,19.55 L 150.00,19.85 L 146.25,20.14 L 142.50,20.42 L 138.75,20.68 L 135.00,20.93 L 131.25,21.16 L 127.50,21.38 L 123.75,21.58 L 120.00,21.76 L 116.25,21.93 L 112.50,22.07 L 108.75,22.20 L 105.00,22.31 L 101.25,22.39 L 97.50,22.45 L 93.75,22.49 L 90.00,22.51 L 86.25,22.49 L 82.50,22.45 L 78.75,22.38 L 75.00,22.28 L 71.25,22.14 L 67.50,21.97 L 63.75,21.76 L 60.00,21.52 L 56.25,21.22 L 52.50,20.88 L 48.75,20.49 L 45.00,20.04 L 41.25,19.54 L 37.50,18.96 L 33.75,18.30 L 30.00,17.56 L 26.25,16.72 L 22.50,15.75 L 18.75,14.63 L 15.00,13.33 L 11.25,11.77 L 7.50,9.81 L 3.75,7.10 L 0.00,0.00 Z"
      fill="#8b6b7a" stroke="#4a2838" stroke-width="1.5"
      stroke-linejoin="round"/>
  </g>
  <!-- Stage 6: 河川遡上 / Spawning -->
  <!-- Length: 65cm  Thickness ratio: 0.15 -->
  <!-- 婚姻色（ブナ）。入河後絶食。 -->
</svg>