<svg xmlns="http://www.w3.org/2000/svg"
  width="340" height="80"
  viewBox="0 0 340.0 79.9">
  <rect width="340" height="80" fill="#f8f8f6"/>
  <g transform="translate(20.0,40.0)">
    <path d="M 0.00,-0.00 L 3.75,-7.58 L 7.50,-10.46 L 11.25,-12.55 L 15.00,-14.22 L 18.75,-15.61 L 22.50,-16.80 L 26.25,-17.83 L 30.00,-18.73 L 33.75,-19.52 L 37.50,-20.22 L 41.25,-20.84 L 45.00,-21.38 L 48.75,-21.86 L 52.50,-22.28 L 56.25,-22.64 L 60.00,-22.95 L 63.75,-23.22 L 67.50,-23.44 L 71.25,-23.62 L 75.00,-23.76 L 78.75,-23.87 L 82.50,-23.95 L 86.25,-23.99 L 90.00,-24.01 L 93.75,-23.99 L 97.50,-23.95 L 101.25,-23.89 L 105.00,-23.79 L 108.75,-23.68 L 112.50,-23.55 L 116.25,-23.39 L 120.00,-23.21 L 123.75,-23.02 L 127.50,-22.80 L 131.25,-22.57 L 135.00,-22.32 L 138.75,-22.06 L 142.50,-21.78 L 146.25,-21.48 L 150.00,-21.18 L 153.75,-20.85 L 157.50,-20.52 L 161.25,-20.17 L 165.00,-19.81 L 168.75,-19.44 L 172.50,-19.05 L 176.25,-18.66 L 180.00,-18.25 L 183.75,-17.84 L 187.50,-17.41 L 191.25,-16.98 L 195.00,-16.53 L 198.75,-16.08 L 202.50,-15.61 L 206.25,-15.14 L 210.00,-14.66 L 213.75,-14.16 L 217.50,-13.67 L 221.25,-13.16 L 225.00,-12.64 L 228.75,-12.12 L 232.50,-11.58 L 236.25,-11.04 L 240.00,-10.49 L 243.75,-9.93 L 247.50,-9.37 L 251.25,-8.79 L 255.00,-8.21 L 258.75,-7.62 L 262.50,-7.02 L 266.25,-6.41 L 270.00,-5.79 L 273.75,-5.16 L 277.50,-4.53 L 281.25,-3.88 L 285.00,-3.23 L 288.75,-2.56 L 292.50,-1.89 L 296.25,-1.20 L 300.00,-0.50 L 296.25,1.20 L 292.50,1.89 L 288.75,2.56 L 285.00,3.23 L 281.25,3.88 L 277.50,4.53 L 273.75,5.16 L 270.00,5.79 L 266.25,6.41 L 262.50,7.02 L 258.75,7.62 L 255.00,8.21 L 251.25,8.79 L 247.50,9.37 L 243.75,9.93 L 240.00,10.49 L 236.25,11.04 L 232.50,11.58 L 228.75,12.12 L 225.00,12.64 L 221.25,13.16 L 217.50,13.67 L 213.75,14.16 L 210.00,14.66 L 206.25,15.14 L 202.50,15.61 L 198.75,16.08 L 195.00,16.53 L 191.25,16.98 L 187.50,17.41 L 183.75,17.84 L 180.00,18.25 L 176.25,18.66 L 172.50,19.05 L 168.75,19.44 L 165.00,19.81 L 161.25,20.17 L 157.50,20.52 L 153.75,20.85 L 150.00,21.18 L 146.25,21.48 L 142.50,21.78 L 138.75,22.06 L 135.00,22.32 L 131.25,22.57 L 127.50,22.80 L 123.75,23.02 L 120.00,23.21 L 116.25,23.39 L 112.50,23.55 L 108.75,23.68 L 105.00,23.79 L 101.25,23.89 L 97.50,23.95 L 93.75,23.99 L 90.00,24.01 L 86.25,23.99 L 82.50,23.95 L 78.75,23.87 L 75.00,23.76 L 71.25,23.62 L 67.50,23.44 L 63.75,23.22 L 60.00,22.95 L 56.25,22.64 L 52.50,22.28 L 48.75,21.86 L 45.00,21.38 L 41.25,20.84 L 37.50,20.22 L 33.75,19.52 L 30.00,18.73 L 26.25,17.83 L 22.50,16.80 L 18.75,15.61 L 15.00,14.22 L 11.25,12.55 L 7.50,10.46 L 3.75,7.58 L 0.00,0.00 Z"
      fill="#a8c8d8" stroke="#2a5878" stroke-width="1.5"
      stroke-linejoin="round"/>
  </g>
  <!-- Stage 4: 海洋回遊 / Ocean -->
  <!-- Length: 30cm  Thickness ratio: 0.16 -->
  <!-- 外洋期。~30cm（推定）。背青・腹銀白。 -->
</svg>