<svg xmlns="http://www.w3.org/2000/svg"
  width="340" height="72"
  viewBox="0 0 340.0 72.4">
  <rect width="340" height="72" fill="#f8f8f6"/>
  <g transform="translate(20.0,36.2)">
    <path d="M 0.00,-0.00 L 3.75,-6.16 L 7.50,-8.50 L 11.25,-10.20 L 15.00,-11.55 L 18.75,-12.68 L 22.50,-13.65 L 26.25,-14.49 L 30.00,-15.22 L 33.75,-15.86 L 37.50,-16.43 L 41.25,-16.93 L 45.00,-17.37 L 48.75,-17.76 L 52.50,-18.10 L 56.25,-18.39 L 60.00,-18.65 L 63.75,-18.86 L 67.50,-19.04 L 71.25,-19.19 L 75.00,-19.31 L 78.75,-19.40 L 82.50,-19.46 L 86.25,-19.49 L 90.00,-19.51 L 93.75,-19.49 L 97.50,-19.46 L 101.25,-19.41 L 105.00,-19.33 L 108.75,-19.24 L 112.50,-19.13 L 116.25,-19.00 L 120.00,-18.86 L 123.75,-18.70 L 127.50,-18.53 L 131.25,-18.34 L 135.00,-18.14 L 138.75,-17.92 L 142.50,-17.70 L 146.25,-17.46 L 150.00,-17.21 L 153.75,-16.94 L 157.50,-16.67 L 161.25,-16.39 L 165.00,-16.10 L 168.75,-15.79 L 172.50,-15.48 L 176.25,-15.16 L 180.00,-14.83 L 183.75,-14.49 L 187.50,-14.15 L 191.25,-13.79 L 195.00,-13.43 L 198.75,-13.06 L 202.50,-12.68 L 206.25,-12.30 L 210.00,-11.91 L 213.75,-11.51 L 217.50,-11.10 L 221.25,-10.69 L 225.00,-10.27 L 228.75,-9.84 L 232.50,-9.41 L 236.25,-8.97 L 240.00,-8.53 L 243.75,-8.07 L 247.50,-7.61 L 251.25,-7.14 L 255.00,-6.67 L 258.75,-6.19 L 262.50,-5.70 L 266.25,-5.21 L 270.00,-4.71 L 273.75,-4.20 L 277.50,-3.68 L 281.25,-3.15 L 285.00,-2.62 L 288.75,-2.08 L 292.50,-1.53 L 296.25,-0.98 L 300.00,-0.41 L 296.25,0.98 L 292.50,1.53 L 288.75,2.08 L 285.00,2.62 L 281.25,3.15 L 277.50,3.68 L 273.75,4.20 L 270.00,4.71 L 266.25,5.21 L 262.50,5.70 L 258.75,6.19 L 255.00,6.67 L 251.25,7.14 L 247.50,7.61 L 243.75,8.07 L 240.00,8.53 L 236.25,8.97 L 232.50,9.41 L 228.75,9.84 L 225.00,10.27 L 221.25,10.69 L 217.50,11.10 L 213.75,11.51 L 210.00,11.91 L 206.25,12.30 L 202.50,12.68 L 198.75,13.06 L 195.00,13.43 L 191.25,13.79 L 187.50,14.15 L 183.75,14.49 L 180.00,14.83 L 176.25,15.16 L 172.50,15.48 L 168.75,15.79 L 165.00,16.10 L 161.25,16.39 L 157.50,16.67 L 153.75,16.94 L 150.00,17.21 L 146.25,17.46 L 142.50,17.70 L 138.75,17.92 L 135.00,18.14 L 131.25,18.34 L 127.50,18.53 L 123.75,18.70 L 120.00,18.86 L 116.25,19.00 L 112.50,19.13 L 108.75,19.24 L 105.00,19.33 L 101.25,19.41 L 97.50,19.46 L 93.75,19.49 L 90.00,19.51 L 86.25,19.49 L 82.50,19.46 L 78.75,19.40 L 75.00,19.31 L 71.25,19.19 L 67.50,19.04 L 63.75,18.86 L 60.00,18.65 L 56.25,18.39 L 52.50,18.10 L 48.75,17.76 L 45.00,17.37 L 41.25,16.93 L 37.50,16.43 L 33.75,15.86 L 30.00,15.22 L 26.25,14.49 L 22.50,13.65 L 18.75,12.68 L 15.00,11.55 L 11.25,10.20 L 7.50,8.50 L 3.75,6.16 L 0.00,0.00 Z"
      fill="#c8d8e8" stroke="#3a5878" stroke-width="1.5"
      stroke-linejoin="round"/>
  </g>
  <!-- Stage 3: スモルト / Smolt -->
  <!-- Length: 9cm  Thickness ratio: 0.13 -->
  <!-- 銀化。降海時8-10cm。 -->
</svg>