<svg xmlns="http://www.w3.org/2000/svg"
  width="4900" height="190"
  viewBox="0 0 4900 190">
  <rect width="4900" height="190" fill="#f8f8f6"/>
  <!-- True relative scale: 1px = 1mm. Adult(65cm)=650px chord -->
  <g transform="translate(340.0,65.0)">
    <path d="M 0.00,-0.00 L 0.25,-0.82 L 0.50,-1.13 L 0.75,-1.36 L 1.00,-1.54 L 1.25,-1.69 L 1.50,-1.82 L 1.75,-1.93 L 2.00,-2.03 L 2.25,-2.12 L 2.50,-2.19 L 2.75,-2.26 L 3.00,-2.32 L 3.25,-2.37 L 3.50,-2.41 L 3.75,-2.45 L 4.00,-2.49 L 4.25,-2.52 L 4.50,-2.54 L 4.75,-2.56 L 5.00,-2.57 L 5.25,-2.59 L 5.50,-2.59 L 5.75,-2.60 L 6.00,-2.60 L 6.25,-2.60 L 6.50,-2.59 L 6.75,-2.59 L 7.00,-2.58 L 7.25,-2.57 L 7.50,-2.55 L 7.75,-2.53 L 8.00,-2.51 L 8.25,-2.49 L 8.50,-2.47 L 8.75,-2.45 L 9.00,-2.42 L 9.25,-2.39 L 9.50,-2.36 L 9.75,-2.33 L 10.00,-2.29 L 10.25,-2.26 L 10.50,-2.22 L 10.75,-2.19 L 11.00,-2.15 L 11.25,-2.11 L 11.50,-2.06 L 11.75,-2.02 L 12.00,-1.98 L 12.25,-1.93 L 12.50,-1.89 L 12.75,-1.84 L 13.00,-1.79 L 13.25,-1.74 L 13.50,-1.69 L 13.75,-1.64 L 14.00,-1.59 L 14.25,-1.53 L 14.50,-1.48 L 14.75,-1.43 L 15.00,-1.37 L 15.25,-1.31 L 15.50,-1.25 L 15.75,-1.20 L 16.00,-1.14 L 16.25,-1.08 L 16.50,-1.01 L 16.75,-0.95 L 17.00,-0.89 L 17.25,-0.83 L 17.50,-0.76 L 17.75,-0.69 L 18.00,-0.63 L 18.25,-0.56 L 18.50,-0.49 L 18.75,-0.42 L 19.00,-0.35 L 19.25,-0.28 L 19.50,-0.20 L 19.75,-0.13 L 20.00,-0.05 L 19.75,0.13 L 19.50,0.20 L 19.25,0.28 L 19.00,0.35 L 18.75,0.42 L 18.50,0.49 L 18.25,0.56 L 18.00,0.63 L 17.75,0.69 L 17.50,0.76 L 17.25,0.83 L 17.00,0.89 L 16.75,0.95 L 16.50,1.01 L 16.25,1.08 L 16.00,1.14 L 15.75,1.20 L 15.50,1.25 L 15.25,1.31 L 15.00,1.37 L 14.75,1.43 L 14.50,1.48 L 14.25,1.53 L 14.00,1.59 L 13.75,1.64 L 13.50,1.69 L 13.25,1.74 L 13.00,1.79 L 12.75,1.84 L 12.50,1.89 L 12.25,1.93 L 12.00,1.98 L 11.75,2.02 L 11.50,2.06 L 11.25,2.11 L 11.00,2.15 L 10.75,2.19 L 10.50,2.22 L 10.25,2.26 L 10.00,2.29 L 9.75,2.33 L 9.50,2.36 L 9.25,2.39 L 9.00,2.42 L 8.75,2.45 L 8.50,2.47 L 8.25,2.49 L 8.00,2.51 L 7.75,2.53 L 7.50,2.55 L 7.25,2.57 L 7.00,2.58 L 6.75,2.59 L 6.50,2.59 L 6.25,2.60 L 6.00,2.60 L 5.75,2.60 L 5.50,2.59 L 5.25,2.59 L 5.00,2.57 L 4.75,2.56 L 4.50,2.54 L 4.25,2.52 L 4.00,2.49 L 3.75,2.45 L 3.50,2.41 L 3.25,2.37 L 3.00,2.32 L 2.75,2.26 L 2.50,2.19 L 2.25,2.12 L 2.00,2.03 L 1.75,1.93 L 1.50,1.82 L 1.25,1.69 L 1.00,1.54 L 0.75,1.36 L 0.50,1.13 L 0.25,0.82 L 0.00,0.00 Z"
      fill="#e8d9b8" stroke="#7a6840"
      stroke-width="0.8" stroke-linejoin="round"/>
  </g>
  <text x="350" y="148" text-anchor="middle"
    font-family="Hiragino Sans, YuGothic, sans-serif"
    font-size="12" font-weight="bold" fill="#2d2d2a">
    &#x2460; 仔魚</text>
  <text x="350" y="164" text-anchor="middle"
    font-family="Arial, sans-serif" font-size="9" fill="#888882">
    Alevin  2cm</text>
  <g transform="translate(1025.0,65.0)">
    <path d="M 0.00,-0.00 L 0.62,-1.50 L 1.25,-2.07 L 1.88,-2.48 L 2.50,-2.81 L 3.12,-3.09 L 3.75,-3.32 L 4.38,-3.53 L 5.00,-3.71 L 5.62,-3.86 L 6.25,-4.00 L 6.88,-4.12 L 7.50,-4.23 L 8.12,-4.33 L 8.75,-4.41 L 9.38,-4.48 L 10.00,-4.54 L 10.62,-4.59 L 11.25,-4.64 L 11.88,-4.67 L 12.50,-4.70 L 13.12,-4.73 L 13.75,-4.74 L 14.37,-4.75 L 15.00,-4.75 L 15.62,-4.75 L 16.25,-4.74 L 16.88,-4.73 L 17.50,-4.71 L 18.12,-4.69 L 18.75,-4.66 L 19.38,-4.63 L 20.00,-4.59 L 20.62,-4.56 L 21.25,-4.51 L 21.88,-4.47 L 22.50,-4.42 L 23.12,-4.37 L 23.75,-4.31 L 24.38,-4.25 L 25.00,-4.19 L 25.62,-4.13 L 26.25,-4.06 L 26.88,-3.99 L 27.50,-3.92 L 28.12,-3.85 L 28.75,-3.77 L 29.38,-3.69 L 30.00,-3.61 L 30.63,-3.53 L 31.25,-3.45 L 31.87,-3.36 L 32.50,-3.27 L 33.12,-3.18 L 33.75,-3.09 L 34.38,-3.00 L 35.00,-2.90 L 35.62,-2.80 L 36.25,-2.70 L 36.88,-2.60 L 37.50,-2.50 L 38.12,-2.40 L 38.75,-2.29 L 39.38,-2.19 L 40.00,-2.08 L 40.62,-1.97 L 41.25,-1.85 L 41.88,-1.74 L 42.50,-1.62 L 43.12,-1.51 L 43.75,-1.39 L 44.38,-1.27 L 45.00,-1.15 L 45.62,-1.02 L 46.25,-0.90 L 46.88,-0.77 L 47.50,-0.64 L 48.12,-0.51 L 48.75,-0.37 L 49.38,-0.24 L 50.00,-0.10 L 49.38,0.24 L 48.75,0.37 L 48.12,0.51 L 47.50,0.64 L 46.88,0.77 L 46.25,0.90 L 45.62,1.02 L 45.00,1.15 L 44.38,1.27 L 43.75,1.39 L 43.12,1.51 L 42.50,1.62 L 41.88,1.74 L 41.25,1.85 L 40.62,1.97 L 40.00,2.08 L 39.38,2.19 L 38.75,2.29 L 38.12,2.40 L 37.50,2.50 L 36.88,2.60 L 36.25,2.70 L 35.62,2.80 L 35.00,2.90 L 34.38,3.00 L 33.75,3.09 L 33.12,3.18 L 32.50,3.27 L 31.87,3.36 L 31.25,3.45 L 30.63,3.53 L 30.00,3.61 L 29.38,3.69 L 28.75,3.77 L 28.12,3.85 L 27.50,3.92 L 26.88,3.99 L 26.25,4.06 L 25.62,4.13 L 25.00,4.19 L 24.38,4.25 L 23.75,4.31 L 23.12,4.37 L 22.50,4.42 L 21.88,4.47 L 21.25,4.51 L 20.62,4.56 L 20.00,4.59 L 19.38,4.63 L 18.75,4.66 L 18.12,4.69 L 17.50,4.71 L 16.88,4.73 L 16.25,4.74 L 15.62,4.75 L 15.00,4.75 L 14.37,4.75 L 13.75,4.74 L 13.12,4.73 L 12.50,4.70 L 11.88,4.67 L 11.25,4.64 L 10.62,4.59 L 10.00,4.54 L 9.38,4.48 L 8.75,4.41 L 8.12,4.33 L 7.50,4.23 L 6.88,4.12 L 6.25,4.00 L 5.62,3.86 L 5.00,3.71 L 4.38,3.53 L 3.75,3.32 L 3.12,3.09 L 2.50,2.81 L 1.88,2.48 L 1.25,2.07 L 0.62,1.50 L 0.00,0.00 Z"
      fill="#b8c880" stroke="#4a5830"
      stroke-width="0.8" stroke-linejoin="round"/>
  </g>
  <text x="1050" y="148" text-anchor="middle"
    font-family="Hiragino Sans, YuGothic, sans-serif"
    font-size="12" font-weight="bold" fill="#2d2d2a">
    &#x2461; 稚魚</text>
  <text x="1050" y="164" text-anchor="middle"
    font-family="Arial, sans-serif" font-size="9" fill="#888882">
    Fry  5cm</text>
  <g transform="translate(1705.0,65.0)">
    <path d="M 0.00,-0.00 L 1.12,-1.85 L 2.25,-2.55 L 3.38,-3.06 L 4.50,-3.47 L 5.62,-3.81 L 6.75,-4.09 L 7.87,-4.35 L 9.00,-4.57 L 10.12,-4.76 L 11.25,-4.93 L 12.38,-5.08 L 13.50,-5.21 L 14.62,-5.33 L 15.75,-5.43 L 16.88,-5.52 L 18.00,-5.59 L 19.12,-5.66 L 20.25,-5.71 L 21.38,-5.76 L 22.50,-5.79 L 23.62,-5.82 L 24.75,-5.84 L 25.87,-5.85 L 27.00,-5.85 L 28.12,-5.85 L 29.25,-5.84 L 30.38,-5.82 L 31.50,-5.80 L 32.62,-5.77 L 33.75,-5.74 L 34.88,-5.70 L 36.00,-5.66 L 37.12,-5.61 L 38.25,-5.56 L 39.38,-5.50 L 40.50,-5.44 L 41.62,-5.38 L 42.75,-5.31 L 43.88,-5.24 L 45.00,-5.16 L 46.12,-5.08 L 47.25,-5.00 L 48.38,-4.92 L 49.50,-4.83 L 50.62,-4.74 L 51.75,-4.64 L 52.88,-4.55 L 54.00,-4.45 L 55.13,-4.35 L 56.25,-4.24 L 57.37,-4.14 L 58.50,-4.03 L 59.62,-3.92 L 60.75,-3.81 L 61.88,-3.69 L 63.00,-3.57 L 64.12,-3.45 L 65.25,-3.33 L 66.38,-3.21 L 67.50,-3.08 L 68.62,-2.95 L 69.75,-2.82 L 70.88,-2.69 L 72.00,-2.56 L 73.12,-2.42 L 74.25,-2.28 L 75.38,-2.14 L 76.50,-2.00 L 77.62,-1.86 L 78.75,-1.71 L 79.88,-1.56 L 81.00,-1.41 L 82.12,-1.26 L 83.25,-1.10 L 84.38,-0.95 L 85.50,-0.79 L 86.62,-0.62 L 87.75,-0.46 L 88.88,-0.29 L 90.00,-0.12 L 88.88,0.29 L 87.75,0.46 L 86.62,0.62 L 85.50,0.79 L 84.38,0.95 L 83.25,1.10 L 82.12,1.26 L 81.00,1.41 L 79.88,1.56 L 78.75,1.71 L 77.62,1.86 L 76.50,2.00 L 75.38,2.14 L 74.25,2.28 L 73.12,2.42 L 72.00,2.56 L 70.88,2.69 L 69.75,2.82 L 68.62,2.95 L 67.50,3.08 L 66.38,3.21 L 65.25,3.33 L 64.12,3.45 L 63.00,3.57 L 61.88,3.69 L 60.75,3.81 L 59.62,3.92 L 58.50,4.03 L 57.37,4.14 L 56.25,4.24 L 55.13,4.35 L 54.00,4.45 L 52.88,4.55 L 51.75,4.64 L 50.62,4.74 L 49.50,4.83 L 48.38,4.92 L 47.25,5.00 L 46.12,5.08 L 45.00,5.16 L 43.88,5.24 L 42.75,5.31 L 41.62,5.38 L 40.50,5.44 L 39.38,5.50 L 38.25,5.56 L 37.12,5.61 L 36.00,5.66 L 34.88,5.70 L 33.75,5.74 L 32.62,5.77 L 31.50,5.80 L 30.38,5.82 L 29.25,5.84 L 28.12,5.85 L 27.00,5.85 L 25.87,5.85 L 24.75,5.84 L 23.62,5.82 L 22.50,5.79 L 21.38,5.76 L 20.25,5.71 L 19.12,5.66 L 18.00,5.59 L 16.88,5.52 L 15.75,5.43 L 14.62,5.33 L 13.50,5.21 L 12.38,5.08 L 11.25,4.93 L 10.12,4.76 L 9.00,4.57 L 7.87,4.35 L 6.75,4.09 L 5.62,3.81 L 4.50,3.47 L 3.38,3.06 L 2.25,2.55 L 1.12,1.85 L 0.00,0.00 Z"
      fill="#c8d8e8" stroke="#3a5878"
      stroke-width="0.8" stroke-linejoin="round"/>
  </g>
  <text x="1750" y="148" text-anchor="middle"
    font-family="Hiragino Sans, YuGothic, sans-serif"
    font-size="12" font-weight="bold" fill="#2d2d2a">
    &#x2462; スモルト</text>
  <text x="1750" y="164" text-anchor="middle"
    font-family="Arial, sans-serif" font-size="9" fill="#888882">
    Smolt  9cm</text>
  <g transform="translate(2300.0,65.0)">
    <path d="M 0.00,-0.00 L 3.75,-7.58 L 7.50,-10.46 L 11.25,-12.55 L 15.00,-14.22 L 18.75,-15.61 L 22.50,-16.80 L 26.25,-17.83 L 30.00,-18.73 L 33.75,-19.52 L 37.50,-20.22 L 41.25,-20.84 L 45.00,-21.38 L 48.75,-21.86 L 52.50,-22.28 L 56.25,-22.64 L 60.00,-22.95 L 63.75,-23.22 L 67.50,-23.44 L 71.25,-23.62 L 75.00,-23.76 L 78.75,-23.87 L 82.50,-23.95 L 86.25,-23.99 L 90.00,-24.01 L 93.75,-23.99 L 97.50,-23.95 L 101.25,-23.89 L 105.00,-23.79 L 108.75,-23.68 L 112.50,-23.55 L 116.25,-23.39 L 120.00,-23.21 L 123.75,-23.02 L 127.50,-22.80 L 131.25,-22.57 L 135.00,-22.32 L 138.75,-22.06 L 142.50,-21.78 L 146.25,-21.48 L 150.00,-21.18 L 153.75,-20.85 L 157.50,-20.52 L 161.25,-20.17 L 165.00,-19.81 L 168.75,-19.44 L 172.50,-19.05 L 176.25,-18.66 L 180.00,-18.25 L 183.75,-17.84 L 187.50,-17.41 L 191.25,-16.98 L 195.00,-16.53 L 198.75,-16.08 L 202.50,-15.61 L 206.25,-15.14 L 210.00,-14.66 L 213.75,-14.16 L 217.50,-13.67 L 221.25,-13.16 L 225.00,-12.64 L 228.75,-12.12 L 232.50,-11.58 L 236.25,-11.04 L 240.00,-10.49 L 243.75,-9.93 L 247.50,-9.37 L 251.25,-8.79 L 255.00,-8.21 L 258.75,-7.62 L 262.50,-7.02 L 266.25,-6.41 L 270.00,-5.79 L 273.75,-5.16 L 277.50,-4.53 L 281.25,-3.88 L 285.00,-3.23 L 288.75,-2.56 L 292.50,-1.89 L 296.25,-1.20 L 300.00,-0.50 L 296.25,1.20 L 292.50,1.89 L 288.75,2.56 L 285.00,3.23 L 281.25,3.88 L 277.50,4.53 L 273.75,5.16 L 270.00,5.79 L 266.25,6.41 L 262.50,7.02 L 258.75,7.62 L 255.00,8.21 L 251.25,8.79 L 247.50,9.37 L 243.75,9.93 L 240.00,10.49 L 236.25,11.04 L 232.50,11.58 L 228.75,12.12 L 225.00,12.64 L 221.25,13.16 L 217.50,13.67 L 213.75,14.16 L 210.00,14.66 L 206.25,15.14 L 202.50,15.61 L 198.75,16.08 L 195.00,16.53 L 191.25,16.98 L 187.50,17.41 L 183.75,17.84 L 180.00,18.25 L 176.25,18.66 L 172.50,19.05 L 168.75,19.44 L 165.00,19.81 L 161.25,20.17 L 157.50,20.52 L 153.75,20.85 L 150.00,21.18 L 146.25,21.48 L 142.50,21.78 L 138.75,22.06 L 135.00,22.32 L 131.25,22.57 L 127.50,22.80 L 123.75,23.02 L 120.00,23.21 L 116.25,23.39 L 112.50,23.55 L 108.75,23.68 L 105.00,23.79 L 101.25,23.89 L 97.50,23.95 L 93.75,23.99 L 90.00,24.01 L 86.25,23.99 L 82.50,23.95 L 78.75,23.87 L 75.00,23.76 L 71.25,23.62 L 67.50,23.44 L 63.75,23.22 L 60.00,22.95 L 56.25,22.64 L 52.50,22.28 L 48.75,21.86 L 45.00,21.38 L 41.25,20.84 L 37.50,20.22 L 33.75,19.52 L 30.00,18.73 L 26.25,17.83 L 22.50,16.80 L 18.75,15.61 L 15.00,14.22 L 11.25,12.55 L 7.50,10.46 L 3.75,7.58 L 0.00,0.00 Z"
      fill="#a8c8d8" stroke="#2a5878"
      stroke-width="0.8" stroke-linejoin="round"/>
  </g>
  <text x="2450" y="148" text-anchor="middle"
    font-family="Hiragino Sans, YuGothic, sans-serif"
    font-size="12" font-weight="bold" fill="#2d2d2a">
    &#x2463; 海洋回遊</text>
  <text x="2450" y="164" text-anchor="middle"
    font-family="Arial, sans-serif" font-size="9" fill="#888882">
    Ocean  30cm</text>
  <g transform="translate(2825.0,65.0)">
    <path d="M 0.00,-0.00 L 8.12,-18.47 L 16.25,-25.49 L 24.38,-30.59 L 32.50,-34.66 L 40.62,-38.05 L 48.75,-40.95 L 56.87,-43.46 L 65.00,-45.66 L 73.12,-47.59 L 81.25,-49.29 L 89.38,-50.79 L 97.50,-52.12 L 105.62,-53.28 L 113.75,-54.30 L 121.88,-55.18 L 130.00,-55.94 L 138.12,-56.59 L 146.25,-57.13 L 154.38,-57.58 L 162.50,-57.93 L 170.62,-58.19 L 178.75,-58.38 L 186.87,-58.48 L 195.00,-58.52 L 203.12,-58.48 L 211.25,-58.38 L 219.38,-58.22 L 227.50,-58.00 L 235.62,-57.72 L 243.75,-57.39 L 251.88,-57.01 L 260.00,-56.58 L 268.12,-56.10 L 276.25,-55.58 L 284.38,-55.02 L 292.50,-54.41 L 300.62,-53.77 L 308.75,-53.09 L 316.88,-52.37 L 325.00,-51.62 L 333.12,-50.83 L 341.25,-50.01 L 349.38,-49.16 L 357.50,-48.29 L 365.62,-47.38 L 373.75,-46.44 L 381.88,-45.48 L 390.00,-44.49 L 398.13,-43.48 L 406.25,-42.44 L 414.37,-41.38 L 422.50,-40.29 L 430.62,-39.18 L 438.75,-38.05 L 446.88,-36.90 L 455.00,-35.72 L 463.12,-34.53 L 471.25,-33.31 L 479.38,-32.07 L 487.50,-30.81 L 495.62,-29.53 L 503.75,-28.23 L 511.88,-26.92 L 520.00,-25.58 L 528.12,-24.22 L 536.25,-22.83 L 544.38,-21.43 L 552.50,-20.01 L 560.62,-18.57 L 568.75,-17.11 L 576.88,-15.62 L 585.00,-14.12 L 593.12,-12.59 L 601.25,-11.04 L 609.38,-9.46 L 617.50,-7.86 L 625.62,-6.24 L 633.75,-4.60 L 641.88,-2.93 L 650.00,-1.23 L 641.88,2.93 L 633.75,4.60 L 625.62,6.24 L 617.50,7.86 L 609.38,9.46 L 601.25,11.04 L 593.12,12.59 L 585.00,14.12 L 576.88,15.62 L 568.75,17.11 L 560.62,18.57 L 552.50,20.01 L 544.38,21.43 L 536.25,22.83 L 528.12,24.22 L 520.00,25.58 L 511.88,26.92 L 503.75,28.23 L 495.62,29.53 L 487.50,30.81 L 479.38,32.07 L 471.25,33.31 L 463.12,34.53 L 455.00,35.72 L 446.88,36.90 L 438.75,38.05 L 430.62,39.18 L 422.50,40.29 L 414.37,41.38 L 406.25,42.44 L 398.13,43.48 L 390.00,44.49 L 381.88,45.48 L 373.75,46.44 L 365.62,47.38 L 357.50,48.29 L 349.38,49.16 L 341.25,50.01 L 333.12,50.83 L 325.00,51.62 L 316.88,52.37 L 308.75,53.09 L 300.62,53.77 L 292.50,54.41 L 284.38,55.02 L 276.25,55.58 L 268.12,56.10 L 260.00,56.58 L 251.88,57.01 L 243.75,57.39 L 235.62,57.72 L 227.50,58.00 L 219.38,58.22 L 211.25,58.38 L 203.12,58.48 L 195.00,58.52 L 186.87,58.48 L 178.75,58.38 L 170.62,58.19 L 162.50,57.93 L 154.38,57.58 L 146.25,57.13 L 138.12,56.59 L 130.00,55.94 L 121.88,55.18 L 113.75,54.30 L 105.62,53.28 L 97.50,52.12 L 89.38,50.79 L 81.25,49.29 L 73.12,47.59 L 65.00,45.66 L 56.87,43.46 L 48.75,40.95 L 40.62,38.05 L 32.50,34.66 L 24.38,30.59 L 16.25,25.49 L 8.12,18.47 L 0.00,0.00 Z"
      fill="#c0d0d8" stroke="#3a5070"
      stroke-width="0.8" stroke-linejoin="round"/>
  </g>
  <text x="3150" y="148" text-anchor="middle"
    font-family="Hiragino Sans, YuGothic, sans-serif"
    font-size="12" font-weight="bold" fill="#2d2d2a">
    &#x2464; 沿岸回帰</text>
  <text x="3150" y="164" text-anchor="middle"
    font-family="Arial, sans-serif" font-size="9" fill="#888882">
    Coastal  65cm</text>
  <g transform="translate(3525.0,65.0)">
    <path d="M 0.00,-0.00 L 8.12,-15.39 L 16.25,-21.24 L 24.38,-25.49 L 32.50,-28.88 L 40.62,-31.71 L 48.75,-34.12 L 56.87,-36.22 L 65.00,-38.05 L 73.12,-39.66 L 81.25,-41.08 L 89.38,-42.33 L 97.50,-43.43 L 105.62,-44.40 L 113.75,-45.25 L 121.88,-45.98 L 130.00,-46.62 L 138.12,-47.16 L 146.25,-47.61 L 154.38,-47.98 L 162.50,-48.27 L 170.62,-48.49 L 178.75,-48.65 L 186.87,-48.74 L 195.00,-48.76 L 203.12,-48.74 L 211.25,-48.65 L 219.38,-48.52 L 227.50,-48.33 L 235.62,-48.10 L 243.75,-47.83 L 251.88,-47.51 L 260.00,-47.15 L 268.12,-46.75 L 276.25,-46.32 L 284.38,-45.85 L 292.50,-45.34 L 300.62,-44.81 L 308.75,-44.24 L 316.88,-43.64 L 325.00,-43.01 L 333.12,-42.36 L 341.25,-41.68 L 349.38,-40.97 L 357.50,-40.24 L 365.62,-39.48 L 373.75,-38.70 L 381.88,-37.90 L 390.00,-37.08 L 398.13,-36.23 L 406.25,-35.37 L 414.37,-34.48 L 422.50,-33.58 L 430.62,-32.65 L 438.75,-31.71 L 446.88,-30.75 L 455.00,-29.77 L 463.12,-28.77 L 471.25,-27.76 L 479.38,-26.73 L 487.50,-25.68 L 495.62,-24.61 L 503.75,-23.53 L 511.88,-22.43 L 520.00,-21.31 L 528.12,-20.18 L 536.25,-19.03 L 544.38,-17.86 L 552.50,-16.68 L 560.62,-15.48 L 568.75,-14.26 L 576.88,-13.02 L 585.00,-11.76 L 593.12,-10.49 L 601.25,-9.20 L 609.38,-7.88 L 617.50,-6.55 L 625.62,-5.20 L 633.75,-3.83 L 641.88,-2.44 L 650.00,-1.02 L 641.88,2.44 L 633.75,3.83 L 625.62,5.20 L 617.50,6.55 L 609.38,7.88 L 601.25,9.20 L 593.12,10.49 L 585.00,11.76 L 576.88,13.02 L 568.75,14.26 L 560.62,15.48 L 552.50,16.68 L 544.38,17.86 L 536.25,19.03 L 528.12,20.18 L 520.00,21.31 L 511.88,22.43 L 503.75,23.53 L 495.62,24.61 L 487.50,25.68 L 479.38,26.73 L 471.25,27.76 L 463.12,28.77 L 455.00,29.77 L 446.88,30.75 L 438.75,31.71 L 430.62,32.65 L 422.50,33.58 L 414.37,34.48 L 406.25,35.37 L 398.13,36.23 L 390.00,37.08 L 381.88,37.90 L 373.75,38.70 L 365.62,39.48 L 357.50,40.24 L 349.38,40.97 L 341.25,41.68 L 333.12,42.36 L 325.00,43.01 L 316.88,43.64 L 308.75,44.24 L 300.62,44.81 L 292.50,45.34 L 284.38,45.85 L 276.25,46.32 L 268.12,46.75 L 260.00,47.15 L 251.88,47.51 L 243.75,47.83 L 235.62,48.10 L 227.50,48.33 L 219.38,48.52 L 211.25,48.65 L 203.12,48.74 L 195.00,48.76 L 186.87,48.74 L 178.75,48.65 L 170.62,48.49 L 162.50,48.27 L 154.38,47.98 L 146.25,47.61 L 138.12,47.16 L 130.00,46.62 L 121.88,45.98 L 113.75,45.25 L 105.62,44.40 L 97.50,43.43 L 89.38,42.33 L 81.25,41.08 L 73.12,39.66 L 65.00,38.05 L 56.87,36.22 L 48.75,34.12 L 40.62,31.71 L 32.50,28.88 L 24.38,25.49 L 16.25,21.24 L 8.12,15.39 L 0.00,0.00 Z"
      fill="#8b6b7a" stroke="#4a2838"
      stroke-width="0.8" stroke-linejoin="round"/>
  </g>
  <text x="3850" y="148" text-anchor="middle"
    font-family="Hiragino Sans, YuGothic, sans-serif"
    font-size="12" font-weight="bold" fill="#2d2d2a">
    &#x2465; 河川遡上</text>
  <text x="3850" y="164" text-anchor="middle"
    font-family="Arial, sans-serif" font-size="9" fill="#888882">
    Spawning  65cm</text>
  <g transform="translate(4225.0,65.0)">
    <path d="M 0.00,-0.00 L 8.12,-8.21 L 16.25,-11.33 L 24.38,-13.60 L 32.50,-15.40 L 40.62,-16.91 L 48.75,-18.20 L 56.87,-19.32 L 65.00,-20.29 L 73.12,-21.15 L 81.25,-21.91 L 89.38,-22.57 L 97.50,-23.16 L 105.62,-23.68 L 113.75,-24.13 L 121.88,-24.52 L 130.00,-24.86 L 138.12,-25.15 L 146.25,-25.39 L 154.38,-25.59 L 162.50,-25.75 L 170.62,-25.86 L 178.75,-25.94 L 186.87,-25.99 L 195.00,-26.01 L 203.12,-25.99 L 211.25,-25.95 L 219.38,-25.88 L 227.50,-25.78 L 235.62,-25.65 L 243.75,-25.51 L 251.88,-25.34 L 260.00,-25.15 L 268.12,-24.93 L 276.25,-24.70 L 284.38,-24.45 L 292.50,-24.18 L 300.62,-23.90 L 308.75,-23.59 L 316.88,-23.28 L 325.00,-22.94 L 333.12,-22.59 L 341.25,-22.23 L 349.38,-21.85 L 357.50,-21.46 L 365.62,-21.06 L 373.75,-20.64 L 381.88,-20.21 L 390.00,-19.77 L 398.13,-19.32 L 406.25,-18.86 L 414.37,-18.39 L 422.50,-17.91 L 430.62,-17.41 L 438.75,-16.91 L 446.88,-16.40 L 455.00,-15.88 L 463.12,-15.35 L 471.25,-14.80 L 479.38,-14.25 L 487.50,-13.69 L 495.62,-13.13 L 503.75,-12.55 L 511.88,-11.96 L 520.00,-11.37 L 528.12,-10.76 L 536.25,-10.15 L 544.38,-9.53 L 552.50,-8.89 L 560.62,-8.25 L 568.75,-7.60 L 576.88,-6.94 L 585.00,-6.27 L 593.12,-5.59 L 601.25,-4.90 L 609.38,-4.21 L 617.50,-3.50 L 625.62,-2.77 L 633.75,-2.04 L 641.88,-1.30 L 650.00,-0.55 L 641.88,1.30 L 633.75,2.04 L 625.62,2.77 L 617.50,3.50 L 609.38,4.21 L 601.25,4.90 L 593.12,5.59 L 585.00,6.27 L 576.88,6.94 L 568.75,7.60 L 560.62,8.25 L 552.50,8.89 L 544.38,9.53 L 536.25,10.15 L 528.12,10.76 L 520.00,11.37 L 511.88,11.96 L 503.75,12.55 L 495.62,13.13 L 487.50,13.69 L 479.38,14.25 L 471.25,14.80 L 463.12,15.35 L 455.00,15.88 L 446.88,16.40 L 438.75,16.91 L 430.62,17.41 L 422.50,17.91 L 414.37,18.39 L 406.25,18.86 L 398.13,19.32 L 390.00,19.77 L 381.88,20.21 L 373.75,20.64 L 365.62,21.06 L 357.50,21.46 L 349.38,21.85 L 341.25,22.23 L 333.12,22.59 L 325.00,22.94 L 316.88,23.28 L 308.75,23.59 L 300.62,23.90 L 292.50,24.18 L 284.38,24.45 L 276.25,24.70 L 268.12,24.93 L 260.00,25.15 L 251.88,25.34 L 243.75,25.51 L 235.62,25.65 L 227.50,25.78 L 219.38,25.88 L 211.25,25.95 L 203.12,25.99 L 195.00,26.01 L 186.87,25.99 L 178.75,25.94 L 170.62,25.86 L 162.50,25.75 L 154.38,25.59 L 146.25,25.39 L 138.12,25.15 L 130.00,24.86 L 121.88,24.52 L 113.75,24.13 L 105.62,23.68 L 97.50,23.16 L 89.38,22.57 L 81.25,21.91 L 73.12,21.15 L 65.00,20.29 L 56.87,19.32 L 48.75,18.20 L 40.62,16.91 L 32.50,15.40 L 24.38,13.60 L 16.25,11.33 L 8.12,8.21 L 0.00,0.00 Z"
      fill="#c8b8a8" stroke="#6a5848"
      stroke-width="0.8" stroke-linejoin="round"/>
  </g>
  <text x="4550" y="148" text-anchor="middle"
    font-family="Hiragino Sans, YuGothic, sans-serif"
    font-size="12" font-weight="bold" fill="#2d2d2a">
    &#x2466; ほっちゃれ</text>
  <text x="4550" y="164" text-anchor="middle"
    font-family="Arial, sans-serif" font-size="9" fill="#888882">
    Post-spawn  65cm</text>
</svg>