<svg xmlns="http://www.w3.org/2000/svg"
  width="340" height="105"
  viewBox="0 0 340.0 104.8">
  <rect width="340" height="105" fill="#f8f8f6"/>
  <g transform="translate(20.0,52.4)">
    <path d="M 0.00,-0.00 L 3.75,-12.31 L 7.50,-17.00 L 11.25,-20.39 L 15.00,-23.11 L 18.75,-25.37 L 22.50,-27.30 L 26.25,-28.97 L 30.00,-30.44 L 33.75,-31.73 L 37.50,-32.86 L 41.25,-33.86 L 45.00,-34.74 L 48.75,-35.52 L 52.50,-36.20 L 56.25,-36.79 L 60.00,-37.29 L 63.75,-37.73 L 67.50,-38.09 L 71.25,-38.38 L 75.00,-38.62 L 78.75,-38.79 L 82.50,-38.92 L 86.25,-38.99 L 90.00,-39.01 L 93.75,-38.99 L 97.50,-38.92 L 101.25,-38.81 L 105.00,-38.67 L 108.75,-38.48 L 112.50,-38.26 L 116.25,-38.01 L 120.00,-37.72 L 123.75,-37.40 L 127.50,-37.05 L 131.25,-36.68 L 135.00,-36.27 L 138.75,-35.85 L 142.50,-35.39 L 146.25,-34.91 L 150.00,-34.41 L 153.75,-33.89 L 157.50,-33.34 L 161.25,-32.78 L 165.00,-32.19 L 168.75,-31.59 L 172.50,-30.96 L 176.25,-30.32 L 180.00,-29.66 L 183.75,-28.99 L 187.50,-28.29 L 191.25,-27.59 L 195.00,-26.86 L 198.75,-26.12 L 202.50,-25.37 L 206.25,-24.60 L 210.00,-23.82 L 213.75,-23.02 L 217.50,-22.21 L 221.25,-21.38 L 225.00,-20.54 L 228.75,-19.69 L 232.50,-18.82 L 236.25,-17.94 L 240.00,-17.05 L 243.75,-16.14 L 247.50,-15.22 L 251.25,-14.29 L 255.00,-13.34 L 258.75,-12.38 L 262.50,-11.40 L 266.25,-10.41 L 270.00,-9.41 L 273.75,-8.39 L 277.50,-7.36 L 281.25,-6.31 L 285.00,-5.24 L 288.75,-4.16 L 292.50,-3.06 L 296.25,-1.95 L 300.00,-0.82 L 296.25,1.95 L 292.50,3.06 L 288.75,4.16 L 285.00,5.24 L 281.25,6.31 L 277.50,7.36 L 273.75,8.39 L 270.00,9.41 L 266.25,10.41 L 262.50,11.40 L 258.75,12.38 L 255.00,13.34 L 251.25,14.29 L 247.50,15.22 L 243.75,16.14 L 240.00,17.05 L 236.25,17.94 L 232.50,18.82 L 228.75,19.69 L 225.00,20.54 L 221.25,21.38 L 217.50,22.21 L 213.75,23.02 L 210.00,23.82 L 206.25,24.60 L 202.50,25.37 L 198.75,26.12 L 195.00,26.86 L 191.25,27.59 L 187.50,28.29 L 183.75,28.99 L 180.00,29.66 L 176.25,30.32 L 172.50,30.96 L 168.75,31.59 L 165.00,32.19 L 161.25,32.78 L 157.50,33.34 L 153.75,33.89 L 150.00,34.41 L 146.25,34.91 L 142.50,35.39 L 138.75,35.85 L 135.00,36.27 L 131.25,36.68 L 127.50,37.05 L 123.75,37.40 L 120.00,37.72 L 116.25,38.01 L 112.50,38.26 L 108.75,38.48 L 105.00,38.67 L 101.25,38.81 L 97.50,38.92 L 93.75,38.99 L 90.00,39.01 L 86.25,38.99 L 82.50,38.92 L 78.75,38.79 L 75.00,38.62 L 71.25,38.38 L 67.50,38.09 L 63.75,37.73 L 60.00,37.29 L 56.25,36.79 L 52.50,36.20 L 48.75,35.52 L 45.00,34.74 L 41.25,33.86 L 37.50,32.86 L 33.75,31.73 L 30.00,30.44 L 26.25,28.97 L 22.50,27.30 L 18.75,25.37 L 15.00,23.11 L 11.25,20.39 L 7.50,17.00 L 3.75,12.31 L 0.00,0.00 Z"
      fill="#e8d9b8" stroke="#7a6840" stroke-width="1.5"
      stroke-linejoin="round"/>
  </g>
  <!-- Stage 1: 仔魚 / Alevin -->
  <!-- Length: 2cm  Thickness ratio: 0.26 -->
  <!-- ヨークサック期。体長2cm、腹部に卵黄袋。 -->
</svg>