<svg xmlns="http://www.w3.org/2000/svg"
  width="340" height="60"
  viewBox="0 0 340.0 60.0">
  <rect width="340" height="60" fill="#f8f8f6"/>
  <g transform="translate(20.0,30.0)">
    <path d="M 0.00,-0.00 L 3.75,-3.79 L 7.50,-5.23 L 11.25,-6.27 L 15.00,-7.11 L 18.75,-7.81 L 22.50,-8.40 L 26.25,-8.92 L 30.00,-9.37 L 33.75,-9.76 L 37.50,-10.11 L 41.25,-10.42 L 45.00,-10.69 L 48.75,-10.93 L 52.50,-11.14 L 56.25,-11.32 L 60.00,-11.48 L 63.75,-11.61 L 67.50,-11.72 L 71.25,-11.81 L 75.00,-11.88 L 78.75,-11.94 L 82.50,-11.97 L 86.25,-12.00 L 90.00,-12.00 L 93.75,-12.00 L 97.50,-11.98 L 101.25,-11.94 L 105.00,-11.90 L 108.75,-11.84 L 112.50,-11.77 L 116.25,-11.69 L 120.00,-11.61 L 123.75,-11.51 L 127.50,-11.40 L 131.25,-11.29 L 135.00,-11.16 L 138.75,-11.03 L 142.50,-10.89 L 146.25,-10.74 L 150.00,-10.59 L 153.75,-10.43 L 157.50,-10.26 L 161.25,-10.09 L 165.00,-9.90 L 168.75,-9.72 L 172.50,-9.53 L 176.25,-9.33 L 180.00,-9.13 L 183.75,-8.92 L 187.50,-8.71 L 191.25,-8.49 L 195.00,-8.26 L 198.75,-8.04 L 202.50,-7.81 L 206.25,-7.57 L 210.00,-7.33 L 213.75,-7.08 L 217.50,-6.83 L 221.25,-6.58 L 225.00,-6.32 L 228.75,-6.06 L 232.50,-5.79 L 236.25,-5.52 L 240.00,-5.25 L 243.75,-4.97 L 247.50,-4.68 L 251.25,-4.40 L 255.00,-4.11 L 258.75,-3.81 L 262.50,-3.51 L 266.25,-3.20 L 270.00,-2.90 L 273.75,-2.58 L 277.50,-2.26 L 281.25,-1.94 L 285.00,-1.61 L 288.75,-1.28 L 292.50,-0.94 L 296.25,-0.60 L 300.00,-0.25 L 296.25,0.60 L 292.50,0.94 L 288.75,1.28 L 285.00,1.61 L 281.25,1.94 L 277.50,2.26 L 273.75,2.58 L 270.00,2.90 L 266.25,3.20 L 262.50,3.51 L 258.75,3.81 L 255.00,4.11 L 251.25,4.40 L 247.50,4.68 L 243.75,4.97 L 240.00,5.25 L 236.25,5.52 L 232.50,5.79 L 228.75,6.06 L 225.00,6.32 L 221.25,6.58 L 217.50,6.83 L 213.75,7.08 L 210.00,7.33 L 206.25,7.57 L 202.50,7.81 L 198.75,8.04 L 195.00,8.26 L 191.25,8.49 L 187.50,8.71 L 183.75,8.92 L 180.00,9.13 L 176.25,9.33 L 172.50,9.53 L 168.75,9.72 L 165.00,9.90 L 161.25,10.09 L 157.50,10.26 L 153.75,10.43 L 150.00,10.59 L 146.25,10.74 L 142.50,10.89 L 138.75,11.03 L 135.00,11.16 L 131.25,11.29 L 127.50,11.40 L 123.75,11.51 L 120.00,11.61 L 116.25,11.69 L 112.50,11.77 L 108.75,11.84 L 105.00,11.90 L 101.25,11.94 L 97.50,11.98 L 93.75,12.00 L 90.00,12.00 L 86.25,12.00 L 82.50,11.97 L 78.75,11.94 L 75.00,11.88 L 71.25,11.81 L 67.50,11.72 L 63.75,11.61 L 60.00,11.48 L 56.25,11.32 L 52.50,11.14 L 48.75,10.93 L 45.00,10.69 L 41.25,10.42 L 37.50,10.11 L 33.75,9.76 L 30.00,9.37 L 26.25,8.92 L 22.50,8.40 L 18.75,7.81 L 15.00,7.11 L 11.25,6.27 L 7.50,5.23 L 3.75,3.79 L 0.00,0.00 Z"
      fill="#c8b8a8" stroke="#6a5848" stroke-width="1.5"
      stroke-linejoin="round"/>
  </g>
  <!-- Stage 7: ほっちゃれ / Post-spawn -->
  <!-- Length: 65cm  Thickness ratio: 0.08 -->
  <!-- 産卵後。激痩せ・白化。約7-10日で死。 -->
</svg>